G04 (created by PCBNEW (25-Oct-2014 BZR 4029)-stable) date Fri 14 Aug 2015 02:05:25 PM EDT*
%MOIN*%
G04 Gerber Fmt 3.4, Leading zero omitted, Abs format*
%FSLAX34Y34*%
G01*
G70*
G90*
G04 APERTURE LIST*
%ADD10C,0.00393701*%
%ADD11C,0.035*%
%ADD12C,0.01*%
%ADD13C,0.02*%
G04 APERTURE END LIST*
G54D10*
G54D11*
X50059Y-36748D03*
X51897Y-36767D03*
X49633Y-36807D03*
X47952Y-36326D03*
X50700Y-34338D03*
X50708Y-35177D03*
X51889Y-42677D03*
X54881Y-39173D03*
X47047Y-39566D03*
X46102Y-42007D03*
X47598Y-38858D03*
X48464Y-38858D03*
X50787Y-32480D03*
X49645Y-32440D03*
X55472Y-35000D03*
X57047Y-32007D03*
X49740Y-44629D03*
X47889Y-44791D03*
X48661Y-37952D03*
X44881Y-39960D03*
X50708Y-45551D03*
X50984Y-44803D03*
X55314Y-43267D03*
X55826Y-40000D03*
X54212Y-39960D03*
X42362Y-37362D03*
X43307Y-39173D03*
X45393Y-42204D03*
X44527Y-41023D03*
X55905Y-38937D03*
X54921Y-38464D03*
X53976Y-34488D03*
X52952Y-34488D03*
X56062Y-45236D03*
X55039Y-45236D03*
X44094Y-45866D03*
X46062Y-46732D03*
X47007Y-47755D03*
X46496Y-48307D03*
X55393Y-41732D03*
X52244Y-43110D03*
X54724Y-41771D03*
X47011Y-43649D03*
X49606Y-40275D03*
X46811Y-34763D03*
X48818Y-34763D03*
X49775Y-36354D03*
X50645Y-36448D03*
X46771Y-34291D03*
X50740Y-36011D03*
X49173Y-40472D03*
X48818Y-41377D03*
X47598Y-39330D03*
X47716Y-41614D03*
X44330Y-37480D03*
X44488Y-38858D03*
X48405Y-43590D03*
X51185Y-44192D03*
X50177Y-43618D03*
X49188Y-44492D03*
X48629Y-44610D03*
X54055Y-41574D03*
X53622Y-40944D03*
X53188Y-41929D03*
X52913Y-40708D03*
X52598Y-42677D03*
X52519Y-41023D03*
X52755Y-48031D03*
X53622Y-47086D03*
X51496Y-42401D03*
X49173Y-39685D03*
X47519Y-45901D03*
X49460Y-41783D03*
X45393Y-41614D03*
X45826Y-39724D03*
X44606Y-42913D03*
X49527Y-40787D03*
X49173Y-32992D03*
X49173Y-33818D03*
X53673Y-37078D03*
X51161Y-41578D03*
X52011Y-37708D03*
X50078Y-37708D03*
X50874Y-40165D03*
X53295Y-36854D03*
X45669Y-40944D03*
X46299Y-39803D03*
G54D12*
X51877Y-36748D02*
X50059Y-36748D01*
X51897Y-36767D02*
X51877Y-36748D01*
X49633Y-36807D02*
X49153Y-36326D01*
X49153Y-36326D02*
X47952Y-36326D01*
X50700Y-35169D02*
X50700Y-34338D01*
X50708Y-35177D02*
X50700Y-35169D01*
X51889Y-39881D02*
X51889Y-42677D01*
X52362Y-39409D02*
X51889Y-39881D01*
X54645Y-39409D02*
X52362Y-39409D01*
X54881Y-39173D02*
X54645Y-39409D01*
X46259Y-40354D02*
X47047Y-39566D01*
X46259Y-41850D02*
X46259Y-40354D01*
X46102Y-42007D02*
X46259Y-41850D01*
X47598Y-38858D02*
X48464Y-38858D01*
X49685Y-32480D02*
X50787Y-32480D01*
X49645Y-32440D02*
X49685Y-32480D01*
G54D13*
X55472Y-33582D02*
X55472Y-35000D01*
X57047Y-32007D02*
X55472Y-33582D01*
G54D12*
X49381Y-44988D02*
X49740Y-44629D01*
X48086Y-44988D02*
X49381Y-44988D01*
X47889Y-44791D02*
X48086Y-44988D01*
X48228Y-38385D02*
X48661Y-37952D01*
X46456Y-38385D02*
X48228Y-38385D01*
X44881Y-39960D02*
X46456Y-38385D01*
X50984Y-45275D02*
X50984Y-44803D01*
X50708Y-45551D02*
X50984Y-45275D01*
X55314Y-43267D02*
X55393Y-43188D01*
X55393Y-43188D02*
X55393Y-41732D01*
X54251Y-40000D02*
X55826Y-40000D01*
X54212Y-39960D02*
X54251Y-40000D01*
X42362Y-38425D02*
X42362Y-37362D01*
X42834Y-38897D02*
X42362Y-38425D01*
X43031Y-38897D02*
X42834Y-38897D01*
X43307Y-39173D02*
X43031Y-38897D01*
X44921Y-41732D02*
X45393Y-42204D01*
X44921Y-41417D02*
X44921Y-41732D01*
X44527Y-41023D02*
X44921Y-41417D01*
X55905Y-38937D02*
X55433Y-38464D01*
X55433Y-38464D02*
X54921Y-38464D01*
X53976Y-34488D02*
X52952Y-34488D01*
X55039Y-45236D02*
X56062Y-45236D01*
X45196Y-45866D02*
X44094Y-45866D01*
X46062Y-46732D02*
X45196Y-45866D01*
X47007Y-47795D02*
X47007Y-47755D01*
X46496Y-48307D02*
X47007Y-47795D01*
X53385Y-43110D02*
X52244Y-43110D01*
X54724Y-41771D02*
X53385Y-43110D01*
X48050Y-42900D02*
X47011Y-43649D01*
X50039Y-40748D02*
X48050Y-42900D01*
X50039Y-40708D02*
X50039Y-40748D01*
X49606Y-40275D02*
X50039Y-40708D01*
X48818Y-34763D02*
X46811Y-34763D01*
X50606Y-36488D02*
X49775Y-36354D01*
X50645Y-36448D02*
X50606Y-36488D01*
X48897Y-34291D02*
X46771Y-34291D01*
X49173Y-34566D02*
X48897Y-34291D01*
X49500Y-35279D02*
X49173Y-34566D01*
X49740Y-35988D02*
X49500Y-35279D01*
X50090Y-35988D02*
X49740Y-35988D01*
X50740Y-36011D02*
X50090Y-35988D01*
X48818Y-41377D02*
X49173Y-40472D01*
X47598Y-41496D02*
X47598Y-39330D01*
X47716Y-41614D02*
X47598Y-41496D01*
X44330Y-38700D02*
X44330Y-37480D01*
X44488Y-38858D02*
X44330Y-38700D01*
X48433Y-43618D02*
X50177Y-43618D01*
X48405Y-43590D02*
X48433Y-43618D01*
X51185Y-44192D02*
X50610Y-43618D01*
X50610Y-43618D02*
X50177Y-43618D01*
X48748Y-44492D02*
X49188Y-44492D01*
X48629Y-44610D02*
X48748Y-44492D01*
X54055Y-41377D02*
X54055Y-41574D01*
X53622Y-40944D02*
X54055Y-41377D01*
X53188Y-40984D02*
X53188Y-41929D01*
X52913Y-40708D02*
X53188Y-40984D01*
X52598Y-41102D02*
X52598Y-42677D01*
X52519Y-41023D02*
X52598Y-41102D01*
X52755Y-47952D02*
X52755Y-48031D01*
X53622Y-47086D02*
X52755Y-47952D01*
X50393Y-41299D02*
X51496Y-42401D01*
X50393Y-40354D02*
X50393Y-41299D01*
X50000Y-39960D02*
X50393Y-40354D01*
X49488Y-39960D02*
X50000Y-39960D01*
X49173Y-39685D02*
X49488Y-39960D01*
X47519Y-43724D02*
X47519Y-45901D01*
X49460Y-41783D02*
X47519Y-43724D01*
X45393Y-40157D02*
X45393Y-41614D01*
X45826Y-39724D02*
X45393Y-40157D01*
X47677Y-42913D02*
X44606Y-42913D01*
X49133Y-41456D02*
X47677Y-42913D01*
X49133Y-41181D02*
X49133Y-41456D01*
X49527Y-40787D02*
X49133Y-41181D01*
X49173Y-33818D02*
X49173Y-32992D01*
X53586Y-37165D02*
X53673Y-37078D01*
X53610Y-37814D02*
X53586Y-37165D01*
X51688Y-39736D02*
X53610Y-37814D01*
X51688Y-40641D02*
X51688Y-39736D01*
X51019Y-41311D02*
X51688Y-40641D01*
X51019Y-41437D02*
X51019Y-41311D01*
X51161Y-41578D02*
X51019Y-41437D01*
X50078Y-37708D02*
X52011Y-37708D01*
X50874Y-40165D02*
X50814Y-40106D01*
X50814Y-40106D02*
X51051Y-39838D01*
X51051Y-39838D02*
X53295Y-37594D01*
X53295Y-37594D02*
X53295Y-36854D01*
X45669Y-40433D02*
X45669Y-40944D01*
X46299Y-39803D02*
X45669Y-40433D01*
G54D10*
G36*
X57988Y-50901D02*
X55306Y-50901D01*
X55306Y-39089D01*
X55242Y-38932D01*
X55122Y-38813D01*
X54966Y-38748D01*
X54797Y-38748D01*
X54641Y-38812D01*
X54521Y-38932D01*
X54456Y-39088D01*
X54456Y-39109D01*
X52740Y-39109D01*
X53822Y-38027D01*
X53825Y-38022D01*
X53830Y-38019D01*
X53860Y-37970D01*
X53887Y-37929D01*
X53888Y-37924D01*
X53891Y-37919D01*
X53900Y-37861D01*
X53910Y-37814D01*
X53909Y-37810D01*
X53910Y-37803D01*
X53897Y-37446D01*
X53913Y-37439D01*
X54033Y-37319D01*
X54098Y-37163D01*
X54098Y-36994D01*
X54033Y-36838D01*
X53914Y-36718D01*
X53758Y-36653D01*
X53672Y-36653D01*
X53655Y-36613D01*
X53536Y-36494D01*
X53380Y-36429D01*
X53211Y-36429D01*
X53054Y-36493D01*
X52935Y-36613D01*
X52870Y-36769D01*
X52870Y-36938D01*
X52934Y-37094D01*
X52995Y-37155D01*
X52995Y-37470D01*
X52436Y-38028D01*
X52436Y-37624D01*
X52372Y-37468D01*
X52322Y-37418D01*
X52322Y-36683D01*
X52258Y-36527D01*
X52138Y-36407D01*
X51982Y-36342D01*
X51813Y-36342D01*
X51657Y-36407D01*
X51616Y-36448D01*
X51070Y-36448D01*
X51070Y-36364D01*
X51046Y-36306D01*
X51100Y-36252D01*
X51165Y-36096D01*
X51165Y-35927D01*
X51100Y-35771D01*
X50981Y-35651D01*
X50827Y-35587D01*
X50949Y-35537D01*
X51068Y-35418D01*
X51133Y-35262D01*
X51133Y-35092D01*
X51069Y-34936D01*
X51000Y-34868D01*
X51000Y-34639D01*
X51060Y-34579D01*
X51125Y-34423D01*
X51125Y-34254D01*
X51061Y-34098D01*
X50941Y-33978D01*
X50785Y-33913D01*
X50616Y-33913D01*
X50460Y-33978D01*
X50340Y-34097D01*
X50275Y-34253D01*
X50275Y-34422D01*
X50340Y-34579D01*
X50400Y-34639D01*
X50400Y-34883D01*
X50348Y-34936D01*
X50283Y-35092D01*
X50283Y-35261D01*
X50348Y-35417D01*
X50467Y-35537D01*
X50621Y-35601D01*
X50499Y-35651D01*
X50449Y-35701D01*
X50101Y-35688D01*
X50096Y-35689D01*
X50090Y-35688D01*
X49955Y-35688D01*
X49784Y-35183D01*
X49775Y-35168D01*
X49772Y-35154D01*
X49445Y-34442D01*
X49414Y-34398D01*
X49385Y-34354D01*
X49269Y-34238D01*
X49413Y-34179D01*
X49533Y-34059D01*
X49598Y-33903D01*
X49598Y-33734D01*
X49533Y-33578D01*
X49473Y-33517D01*
X49473Y-33293D01*
X49533Y-33233D01*
X49598Y-33077D01*
X49598Y-32907D01*
X49580Y-32865D01*
X49729Y-32866D01*
X49886Y-32801D01*
X49907Y-32780D01*
X50486Y-32780D01*
X50546Y-32840D01*
X50702Y-32905D01*
X50871Y-32905D01*
X51027Y-32840D01*
X51147Y-32721D01*
X51212Y-32565D01*
X51212Y-32396D01*
X51147Y-32239D01*
X51028Y-32120D01*
X50872Y-32055D01*
X50703Y-32055D01*
X50546Y-32119D01*
X50486Y-32180D01*
X49986Y-32180D01*
X49886Y-32080D01*
X49730Y-32016D01*
X49561Y-32015D01*
X49405Y-32080D01*
X49285Y-32199D01*
X49220Y-32356D01*
X49220Y-32525D01*
X49237Y-32567D01*
X49089Y-32567D01*
X48932Y-32631D01*
X48813Y-32751D01*
X48748Y-32907D01*
X48748Y-33076D01*
X48812Y-33232D01*
X48873Y-33293D01*
X48873Y-33517D01*
X48813Y-33577D01*
X48748Y-33733D01*
X48748Y-33903D01*
X48784Y-33991D01*
X47072Y-33991D01*
X47012Y-33931D01*
X46856Y-33866D01*
X46687Y-33866D01*
X46531Y-33930D01*
X46411Y-34050D01*
X46346Y-34206D01*
X46346Y-34375D01*
X46411Y-34531D01*
X46436Y-34557D01*
X46386Y-34678D01*
X46385Y-34847D01*
X46450Y-35004D01*
X46569Y-35123D01*
X46726Y-35188D01*
X46895Y-35188D01*
X47051Y-35124D01*
X47112Y-35063D01*
X48517Y-35063D01*
X48577Y-35123D01*
X48733Y-35188D01*
X48903Y-35188D01*
X49059Y-35124D01*
X49086Y-35097D01*
X49222Y-35394D01*
X49452Y-36075D01*
X49415Y-36113D01*
X49400Y-36149D01*
X49365Y-36114D01*
X49268Y-36049D01*
X49153Y-36026D01*
X48253Y-36026D01*
X48193Y-35966D01*
X48037Y-35901D01*
X47868Y-35901D01*
X47712Y-35966D01*
X47592Y-36085D01*
X47527Y-36241D01*
X47527Y-36410D01*
X47592Y-36567D01*
X47711Y-36686D01*
X47867Y-36751D01*
X48036Y-36751D01*
X48193Y-36687D01*
X48253Y-36626D01*
X49029Y-36626D01*
X49208Y-36806D01*
X49208Y-36891D01*
X49273Y-37047D01*
X49392Y-37167D01*
X49548Y-37232D01*
X49718Y-37232D01*
X49874Y-37167D01*
X49899Y-37142D01*
X49974Y-37172D01*
X50143Y-37173D01*
X50299Y-37108D01*
X50360Y-37048D01*
X51576Y-37048D01*
X51656Y-37127D01*
X51812Y-37192D01*
X51981Y-37192D01*
X52138Y-37128D01*
X52257Y-37008D01*
X52322Y-36852D01*
X52322Y-36683D01*
X52322Y-37418D01*
X52252Y-37348D01*
X52096Y-37283D01*
X51927Y-37283D01*
X51771Y-37348D01*
X51710Y-37408D01*
X50379Y-37408D01*
X50319Y-37348D01*
X50163Y-37283D01*
X49994Y-37283D01*
X49838Y-37348D01*
X49718Y-37467D01*
X49653Y-37623D01*
X49653Y-37792D01*
X49718Y-37949D01*
X49837Y-38068D01*
X49993Y-38133D01*
X50162Y-38133D01*
X50319Y-38069D01*
X50379Y-38008D01*
X51710Y-38008D01*
X51770Y-38068D01*
X51926Y-38133D01*
X52095Y-38133D01*
X52252Y-38069D01*
X52371Y-37949D01*
X52436Y-37793D01*
X52436Y-37624D01*
X52436Y-38028D01*
X50839Y-39626D01*
X50833Y-39634D01*
X50826Y-39640D01*
X50707Y-39774D01*
X50633Y-39804D01*
X50513Y-39924D01*
X50476Y-40013D01*
X50212Y-39748D01*
X50114Y-39683D01*
X50000Y-39660D01*
X49600Y-39660D01*
X49598Y-39658D01*
X49598Y-39600D01*
X49533Y-39444D01*
X49414Y-39324D01*
X49258Y-39260D01*
X49089Y-39259D01*
X48932Y-39324D01*
X48889Y-39367D01*
X48889Y-38774D01*
X48825Y-38617D01*
X48705Y-38498D01*
X48549Y-38433D01*
X48380Y-38433D01*
X48224Y-38497D01*
X48163Y-38558D01*
X47899Y-38558D01*
X47839Y-38498D01*
X47683Y-38433D01*
X47514Y-38433D01*
X47357Y-38497D01*
X47238Y-38617D01*
X47173Y-38773D01*
X47173Y-38942D01*
X47236Y-39094D01*
X47204Y-39171D01*
X47132Y-39142D01*
X46963Y-39141D01*
X46806Y-39206D01*
X46687Y-39325D01*
X46622Y-39482D01*
X46622Y-39525D01*
X46540Y-39443D01*
X46384Y-39378D01*
X46215Y-39378D01*
X46120Y-39417D01*
X46067Y-39364D01*
X45911Y-39299D01*
X45742Y-39299D01*
X45586Y-39363D01*
X45466Y-39483D01*
X45401Y-39639D01*
X45401Y-39725D01*
X45181Y-39945D01*
X45116Y-40042D01*
X45093Y-40157D01*
X45093Y-41313D01*
X45033Y-41373D01*
X44968Y-41529D01*
X44968Y-41698D01*
X45033Y-41854D01*
X45152Y-41974D01*
X45308Y-42039D01*
X45477Y-42039D01*
X45634Y-41974D01*
X45677Y-41931D01*
X45677Y-42092D01*
X45741Y-42248D01*
X45861Y-42367D01*
X46017Y-42432D01*
X46186Y-42432D01*
X46342Y-42368D01*
X46462Y-42248D01*
X46527Y-42092D01*
X46527Y-41979D01*
X46527Y-41979D01*
X46537Y-41965D01*
X46559Y-41850D01*
X46559Y-41850D01*
X46559Y-40478D01*
X47046Y-39991D01*
X47131Y-39992D01*
X47287Y-39927D01*
X47298Y-39916D01*
X47298Y-41496D01*
X47300Y-41507D01*
X47300Y-41507D01*
X47291Y-41529D01*
X47291Y-41698D01*
X47356Y-41854D01*
X47475Y-41974D01*
X47631Y-42039D01*
X47800Y-42039D01*
X47956Y-41974D01*
X48076Y-41855D01*
X48141Y-41699D01*
X48141Y-41530D01*
X48077Y-41373D01*
X47957Y-41254D01*
X47898Y-41229D01*
X47898Y-39631D01*
X47958Y-39571D01*
X48023Y-39415D01*
X48023Y-39246D01*
X47987Y-39158D01*
X48163Y-39158D01*
X48223Y-39218D01*
X48379Y-39283D01*
X48548Y-39283D01*
X48704Y-39218D01*
X48824Y-39099D01*
X48889Y-38943D01*
X48889Y-38774D01*
X48889Y-39367D01*
X48813Y-39443D01*
X48748Y-39600D01*
X48748Y-39769D01*
X48812Y-39925D01*
X48932Y-40045D01*
X49013Y-40078D01*
X48932Y-40111D01*
X48813Y-40231D01*
X48748Y-40387D01*
X48748Y-40556D01*
X48784Y-40644D01*
X48649Y-40988D01*
X48578Y-41017D01*
X48458Y-41136D01*
X48393Y-41293D01*
X48393Y-41462D01*
X48458Y-41618D01*
X48503Y-41663D01*
X47552Y-42613D01*
X44913Y-42613D01*
X44913Y-38774D01*
X44848Y-38617D01*
X44729Y-38498D01*
X44630Y-38457D01*
X44630Y-37781D01*
X44690Y-37721D01*
X44755Y-37565D01*
X44755Y-37396D01*
X44691Y-37239D01*
X44571Y-37120D01*
X44415Y-37055D01*
X44246Y-37055D01*
X44090Y-37119D01*
X43970Y-37239D01*
X43905Y-37395D01*
X43905Y-37564D01*
X43970Y-37720D01*
X44030Y-37781D01*
X44030Y-38700D01*
X44053Y-38815D01*
X44063Y-38830D01*
X44063Y-38942D01*
X44127Y-39098D01*
X44247Y-39218D01*
X44403Y-39283D01*
X44572Y-39283D01*
X44728Y-39218D01*
X44848Y-39099D01*
X44913Y-38943D01*
X44913Y-38774D01*
X44913Y-42613D01*
X44907Y-42613D01*
X44847Y-42553D01*
X44691Y-42488D01*
X44522Y-42488D01*
X44365Y-42552D01*
X44246Y-42672D01*
X44181Y-42828D01*
X44181Y-42997D01*
X44245Y-43153D01*
X44365Y-43273D01*
X44521Y-43338D01*
X44690Y-43338D01*
X44846Y-43273D01*
X44907Y-43213D01*
X47103Y-43213D01*
X47088Y-43224D01*
X46927Y-43224D01*
X46771Y-43289D01*
X46651Y-43408D01*
X46586Y-43564D01*
X46586Y-43733D01*
X46651Y-43890D01*
X46770Y-44009D01*
X46926Y-44074D01*
X47095Y-44074D01*
X47219Y-44023D01*
X47219Y-45600D01*
X47159Y-45660D01*
X47094Y-45816D01*
X47094Y-45985D01*
X47159Y-46142D01*
X47278Y-46261D01*
X47434Y-46326D01*
X47603Y-46326D01*
X47760Y-46262D01*
X47879Y-46142D01*
X47944Y-45986D01*
X47944Y-45817D01*
X47880Y-45661D01*
X47819Y-45600D01*
X47819Y-43848D01*
X47984Y-43684D01*
X48045Y-43830D01*
X48164Y-43950D01*
X48320Y-44015D01*
X48489Y-44015D01*
X48645Y-43951D01*
X48678Y-43918D01*
X49876Y-43918D01*
X49936Y-43978D01*
X50092Y-44043D01*
X50261Y-44043D01*
X50417Y-43978D01*
X50478Y-43918D01*
X50485Y-43918D01*
X50760Y-44192D01*
X50759Y-44277D01*
X50824Y-44433D01*
X50943Y-44553D01*
X51100Y-44617D01*
X51269Y-44617D01*
X51425Y-44553D01*
X51545Y-44433D01*
X51609Y-44277D01*
X51610Y-44108D01*
X51545Y-43952D01*
X51426Y-43832D01*
X51269Y-43767D01*
X51184Y-43767D01*
X50822Y-43405D01*
X50725Y-43340D01*
X50610Y-43318D01*
X50478Y-43318D01*
X50418Y-43258D01*
X50262Y-43193D01*
X50092Y-43193D01*
X49936Y-43257D01*
X49876Y-43318D01*
X48734Y-43318D01*
X48646Y-43230D01*
X48499Y-43169D01*
X49459Y-42208D01*
X49544Y-42208D01*
X49701Y-42143D01*
X49820Y-42024D01*
X49885Y-41868D01*
X49885Y-41699D01*
X49821Y-41543D01*
X49766Y-41488D01*
X50093Y-41134D01*
X50093Y-41299D01*
X50116Y-41414D01*
X50181Y-41511D01*
X51071Y-42400D01*
X51070Y-42485D01*
X51135Y-42642D01*
X51255Y-42761D01*
X51411Y-42826D01*
X51491Y-42826D01*
X51529Y-42917D01*
X51648Y-43037D01*
X51804Y-43102D01*
X51973Y-43102D01*
X52130Y-43037D01*
X52244Y-42923D01*
X52357Y-43037D01*
X52513Y-43102D01*
X52682Y-43102D01*
X52838Y-43037D01*
X52958Y-42918D01*
X53023Y-42762D01*
X53023Y-42592D01*
X52958Y-42436D01*
X52898Y-42376D01*
X52898Y-42239D01*
X52947Y-42289D01*
X53104Y-42354D01*
X53273Y-42354D01*
X53429Y-42289D01*
X53549Y-42170D01*
X53613Y-42014D01*
X53614Y-41844D01*
X53549Y-41688D01*
X53488Y-41628D01*
X53488Y-41349D01*
X53537Y-41369D01*
X53622Y-41369D01*
X53663Y-41410D01*
X53630Y-41489D01*
X53630Y-41658D01*
X53694Y-41815D01*
X53814Y-41934D01*
X53970Y-41999D01*
X54139Y-41999D01*
X54295Y-41935D01*
X54415Y-41815D01*
X54480Y-41659D01*
X54480Y-41490D01*
X54415Y-41334D01*
X54307Y-41226D01*
X54307Y-41226D01*
X54267Y-41165D01*
X54267Y-41165D01*
X54047Y-40945D01*
X54047Y-40860D01*
X53982Y-40704D01*
X53863Y-40584D01*
X53706Y-40519D01*
X53537Y-40519D01*
X53381Y-40584D01*
X53338Y-40627D01*
X53338Y-40624D01*
X53273Y-40468D01*
X53154Y-40348D01*
X52998Y-40283D01*
X52829Y-40283D01*
X52672Y-40348D01*
X52553Y-40467D01*
X52498Y-40598D01*
X52435Y-40598D01*
X52279Y-40663D01*
X52189Y-40752D01*
X52189Y-40006D01*
X52486Y-39709D01*
X54645Y-39709D01*
X54645Y-39709D01*
X54760Y-39686D01*
X54760Y-39686D01*
X54857Y-39621D01*
X54881Y-39598D01*
X54966Y-39598D01*
X55122Y-39533D01*
X55241Y-39414D01*
X55306Y-39258D01*
X55306Y-39089D01*
X55306Y-50901D01*
X54047Y-50901D01*
X54047Y-47002D01*
X53982Y-46846D01*
X53863Y-46726D01*
X53706Y-46661D01*
X53537Y-46661D01*
X53381Y-46726D01*
X53261Y-46845D01*
X53197Y-47001D01*
X53197Y-47087D01*
X52677Y-47606D01*
X52671Y-47606D01*
X52515Y-47670D01*
X52395Y-47790D01*
X52330Y-47946D01*
X52330Y-48115D01*
X52395Y-48271D01*
X52514Y-48391D01*
X52670Y-48456D01*
X52840Y-48456D01*
X52996Y-48392D01*
X53115Y-48272D01*
X53180Y-48116D01*
X53180Y-47951D01*
X53621Y-47511D01*
X53706Y-47511D01*
X53862Y-47447D01*
X53982Y-47327D01*
X54046Y-47171D01*
X54047Y-47002D01*
X54047Y-50901D01*
X49614Y-50901D01*
X49614Y-44407D01*
X49549Y-44251D01*
X49430Y-44132D01*
X49273Y-44067D01*
X49104Y-44067D01*
X48948Y-44131D01*
X48887Y-44192D01*
X48748Y-44192D01*
X48736Y-44194D01*
X48736Y-44194D01*
X48714Y-44185D01*
X48545Y-44185D01*
X48389Y-44249D01*
X48269Y-44369D01*
X48204Y-44525D01*
X48204Y-44694D01*
X48269Y-44850D01*
X48388Y-44970D01*
X48545Y-45035D01*
X48714Y-45035D01*
X48870Y-44970D01*
X48976Y-44864D01*
X49104Y-44917D01*
X49273Y-44917D01*
X49429Y-44852D01*
X49549Y-44733D01*
X49613Y-44577D01*
X49614Y-44407D01*
X49614Y-50901D01*
X41618Y-50901D01*
X41618Y-31775D01*
X56683Y-31775D01*
X56622Y-31922D01*
X56622Y-31937D01*
X55224Y-33335D01*
X55149Y-33448D01*
X55122Y-33582D01*
X55122Y-34748D01*
X55112Y-34758D01*
X55047Y-34915D01*
X55047Y-35084D01*
X55111Y-35240D01*
X55231Y-35360D01*
X55387Y-35424D01*
X55556Y-35425D01*
X55712Y-35360D01*
X55832Y-35241D01*
X55897Y-35084D01*
X55897Y-34915D01*
X55832Y-34759D01*
X55822Y-34749D01*
X55822Y-33727D01*
X57117Y-32432D01*
X57131Y-32432D01*
X57287Y-32368D01*
X57407Y-32248D01*
X57472Y-32092D01*
X57472Y-31923D01*
X57411Y-31775D01*
X57988Y-31775D01*
X57988Y-50901D01*
X57988Y-50901D01*
G37*
G54D12*
X57988Y-50901D02*
X55306Y-50901D01*
X55306Y-39089D01*
X55242Y-38932D01*
X55122Y-38813D01*
X54966Y-38748D01*
X54797Y-38748D01*
X54641Y-38812D01*
X54521Y-38932D01*
X54456Y-39088D01*
X54456Y-39109D01*
X52740Y-39109D01*
X53822Y-38027D01*
X53825Y-38022D01*
X53830Y-38019D01*
X53860Y-37970D01*
X53887Y-37929D01*
X53888Y-37924D01*
X53891Y-37919D01*
X53900Y-37861D01*
X53910Y-37814D01*
X53909Y-37810D01*
X53910Y-37803D01*
X53897Y-37446D01*
X53913Y-37439D01*
X54033Y-37319D01*
X54098Y-37163D01*
X54098Y-36994D01*
X54033Y-36838D01*
X53914Y-36718D01*
X53758Y-36653D01*
X53672Y-36653D01*
X53655Y-36613D01*
X53536Y-36494D01*
X53380Y-36429D01*
X53211Y-36429D01*
X53054Y-36493D01*
X52935Y-36613D01*
X52870Y-36769D01*
X52870Y-36938D01*
X52934Y-37094D01*
X52995Y-37155D01*
X52995Y-37470D01*
X52436Y-38028D01*
X52436Y-37624D01*
X52372Y-37468D01*
X52322Y-37418D01*
X52322Y-36683D01*
X52258Y-36527D01*
X52138Y-36407D01*
X51982Y-36342D01*
X51813Y-36342D01*
X51657Y-36407D01*
X51616Y-36448D01*
X51070Y-36448D01*
X51070Y-36364D01*
X51046Y-36306D01*
X51100Y-36252D01*
X51165Y-36096D01*
X51165Y-35927D01*
X51100Y-35771D01*
X50981Y-35651D01*
X50827Y-35587D01*
X50949Y-35537D01*
X51068Y-35418D01*
X51133Y-35262D01*
X51133Y-35092D01*
X51069Y-34936D01*
X51000Y-34868D01*
X51000Y-34639D01*
X51060Y-34579D01*
X51125Y-34423D01*
X51125Y-34254D01*
X51061Y-34098D01*
X50941Y-33978D01*
X50785Y-33913D01*
X50616Y-33913D01*
X50460Y-33978D01*
X50340Y-34097D01*
X50275Y-34253D01*
X50275Y-34422D01*
X50340Y-34579D01*
X50400Y-34639D01*
X50400Y-34883D01*
X50348Y-34936D01*
X50283Y-35092D01*
X50283Y-35261D01*
X50348Y-35417D01*
X50467Y-35537D01*
X50621Y-35601D01*
X50499Y-35651D01*
X50449Y-35701D01*
X50101Y-35688D01*
X50096Y-35689D01*
X50090Y-35688D01*
X49955Y-35688D01*
X49784Y-35183D01*
X49775Y-35168D01*
X49772Y-35154D01*
X49445Y-34442D01*
X49414Y-34398D01*
X49385Y-34354D01*
X49269Y-34238D01*
X49413Y-34179D01*
X49533Y-34059D01*
X49598Y-33903D01*
X49598Y-33734D01*
X49533Y-33578D01*
X49473Y-33517D01*
X49473Y-33293D01*
X49533Y-33233D01*
X49598Y-33077D01*
X49598Y-32907D01*
X49580Y-32865D01*
X49729Y-32866D01*
X49886Y-32801D01*
X49907Y-32780D01*
X50486Y-32780D01*
X50546Y-32840D01*
X50702Y-32905D01*
X50871Y-32905D01*
X51027Y-32840D01*
X51147Y-32721D01*
X51212Y-32565D01*
X51212Y-32396D01*
X51147Y-32239D01*
X51028Y-32120D01*
X50872Y-32055D01*
X50703Y-32055D01*
X50546Y-32119D01*
X50486Y-32180D01*
X49986Y-32180D01*
X49886Y-32080D01*
X49730Y-32016D01*
X49561Y-32015D01*
X49405Y-32080D01*
X49285Y-32199D01*
X49220Y-32356D01*
X49220Y-32525D01*
X49237Y-32567D01*
X49089Y-32567D01*
X48932Y-32631D01*
X48813Y-32751D01*
X48748Y-32907D01*
X48748Y-33076D01*
X48812Y-33232D01*
X48873Y-33293D01*
X48873Y-33517D01*
X48813Y-33577D01*
X48748Y-33733D01*
X48748Y-33903D01*
X48784Y-33991D01*
X47072Y-33991D01*
X47012Y-33931D01*
X46856Y-33866D01*
X46687Y-33866D01*
X46531Y-33930D01*
X46411Y-34050D01*
X46346Y-34206D01*
X46346Y-34375D01*
X46411Y-34531D01*
X46436Y-34557D01*
X46386Y-34678D01*
X46385Y-34847D01*
X46450Y-35004D01*
X46569Y-35123D01*
X46726Y-35188D01*
X46895Y-35188D01*
X47051Y-35124D01*
X47112Y-35063D01*
X48517Y-35063D01*
X48577Y-35123D01*
X48733Y-35188D01*
X48903Y-35188D01*
X49059Y-35124D01*
X49086Y-35097D01*
X49222Y-35394D01*
X49452Y-36075D01*
X49415Y-36113D01*
X49400Y-36149D01*
X49365Y-36114D01*
X49268Y-36049D01*
X49153Y-36026D01*
X48253Y-36026D01*
X48193Y-35966D01*
X48037Y-35901D01*
X47868Y-35901D01*
X47712Y-35966D01*
X47592Y-36085D01*
X47527Y-36241D01*
X47527Y-36410D01*
X47592Y-36567D01*
X47711Y-36686D01*
X47867Y-36751D01*
X48036Y-36751D01*
X48193Y-36687D01*
X48253Y-36626D01*
X49029Y-36626D01*
X49208Y-36806D01*
X49208Y-36891D01*
X49273Y-37047D01*
X49392Y-37167D01*
X49548Y-37232D01*
X49718Y-37232D01*
X49874Y-37167D01*
X49899Y-37142D01*
X49974Y-37172D01*
X50143Y-37173D01*
X50299Y-37108D01*
X50360Y-37048D01*
X51576Y-37048D01*
X51656Y-37127D01*
X51812Y-37192D01*
X51981Y-37192D01*
X52138Y-37128D01*
X52257Y-37008D01*
X52322Y-36852D01*
X52322Y-36683D01*
X52322Y-37418D01*
X52252Y-37348D01*
X52096Y-37283D01*
X51927Y-37283D01*
X51771Y-37348D01*
X51710Y-37408D01*
X50379Y-37408D01*
X50319Y-37348D01*
X50163Y-37283D01*
X49994Y-37283D01*
X49838Y-37348D01*
X49718Y-37467D01*
X49653Y-37623D01*
X49653Y-37792D01*
X49718Y-37949D01*
X49837Y-38068D01*
X49993Y-38133D01*
X50162Y-38133D01*
X50319Y-38069D01*
X50379Y-38008D01*
X51710Y-38008D01*
X51770Y-38068D01*
X51926Y-38133D01*
X52095Y-38133D01*
X52252Y-38069D01*
X52371Y-37949D01*
X52436Y-37793D01*
X52436Y-37624D01*
X52436Y-38028D01*
X50839Y-39626D01*
X50833Y-39634D01*
X50826Y-39640D01*
X50707Y-39774D01*
X50633Y-39804D01*
X50513Y-39924D01*
X50476Y-40013D01*
X50212Y-39748D01*
X50114Y-39683D01*
X50000Y-39660D01*
X49600Y-39660D01*
X49598Y-39658D01*
X49598Y-39600D01*
X49533Y-39444D01*
X49414Y-39324D01*
X49258Y-39260D01*
X49089Y-39259D01*
X48932Y-39324D01*
X48889Y-39367D01*
X48889Y-38774D01*
X48825Y-38617D01*
X48705Y-38498D01*
X48549Y-38433D01*
X48380Y-38433D01*
X48224Y-38497D01*
X48163Y-38558D01*
X47899Y-38558D01*
X47839Y-38498D01*
X47683Y-38433D01*
X47514Y-38433D01*
X47357Y-38497D01*
X47238Y-38617D01*
X47173Y-38773D01*
X47173Y-38942D01*
X47236Y-39094D01*
X47204Y-39171D01*
X47132Y-39142D01*
X46963Y-39141D01*
X46806Y-39206D01*
X46687Y-39325D01*
X46622Y-39482D01*
X46622Y-39525D01*
X46540Y-39443D01*
X46384Y-39378D01*
X46215Y-39378D01*
X46120Y-39417D01*
X46067Y-39364D01*
X45911Y-39299D01*
X45742Y-39299D01*
X45586Y-39363D01*
X45466Y-39483D01*
X45401Y-39639D01*
X45401Y-39725D01*
X45181Y-39945D01*
X45116Y-40042D01*
X45093Y-40157D01*
X45093Y-41313D01*
X45033Y-41373D01*
X44968Y-41529D01*
X44968Y-41698D01*
X45033Y-41854D01*
X45152Y-41974D01*
X45308Y-42039D01*
X45477Y-42039D01*
X45634Y-41974D01*
X45677Y-41931D01*
X45677Y-42092D01*
X45741Y-42248D01*
X45861Y-42367D01*
X46017Y-42432D01*
X46186Y-42432D01*
X46342Y-42368D01*
X46462Y-42248D01*
X46527Y-42092D01*
X46527Y-41979D01*
X46527Y-41979D01*
X46537Y-41965D01*
X46559Y-41850D01*
X46559Y-41850D01*
X46559Y-40478D01*
X47046Y-39991D01*
X47131Y-39992D01*
X47287Y-39927D01*
X47298Y-39916D01*
X47298Y-41496D01*
X47300Y-41507D01*
X47300Y-41507D01*
X47291Y-41529D01*
X47291Y-41698D01*
X47356Y-41854D01*
X47475Y-41974D01*
X47631Y-42039D01*
X47800Y-42039D01*
X47956Y-41974D01*
X48076Y-41855D01*
X48141Y-41699D01*
X48141Y-41530D01*
X48077Y-41373D01*
X47957Y-41254D01*
X47898Y-41229D01*
X47898Y-39631D01*
X47958Y-39571D01*
X48023Y-39415D01*
X48023Y-39246D01*
X47987Y-39158D01*
X48163Y-39158D01*
X48223Y-39218D01*
X48379Y-39283D01*
X48548Y-39283D01*
X48704Y-39218D01*
X48824Y-39099D01*
X48889Y-38943D01*
X48889Y-38774D01*
X48889Y-39367D01*
X48813Y-39443D01*
X48748Y-39600D01*
X48748Y-39769D01*
X48812Y-39925D01*
X48932Y-40045D01*
X49013Y-40078D01*
X48932Y-40111D01*
X48813Y-40231D01*
X48748Y-40387D01*
X48748Y-40556D01*
X48784Y-40644D01*
X48649Y-40988D01*
X48578Y-41017D01*
X48458Y-41136D01*
X48393Y-41293D01*
X48393Y-41462D01*
X48458Y-41618D01*
X48503Y-41663D01*
X47552Y-42613D01*
X44913Y-42613D01*
X44913Y-38774D01*
X44848Y-38617D01*
X44729Y-38498D01*
X44630Y-38457D01*
X44630Y-37781D01*
X44690Y-37721D01*
X44755Y-37565D01*
X44755Y-37396D01*
X44691Y-37239D01*
X44571Y-37120D01*
X44415Y-37055D01*
X44246Y-37055D01*
X44090Y-37119D01*
X43970Y-37239D01*
X43905Y-37395D01*
X43905Y-37564D01*
X43970Y-37720D01*
X44030Y-37781D01*
X44030Y-38700D01*
X44053Y-38815D01*
X44063Y-38830D01*
X44063Y-38942D01*
X44127Y-39098D01*
X44247Y-39218D01*
X44403Y-39283D01*
X44572Y-39283D01*
X44728Y-39218D01*
X44848Y-39099D01*
X44913Y-38943D01*
X44913Y-38774D01*
X44913Y-42613D01*
X44907Y-42613D01*
X44847Y-42553D01*
X44691Y-42488D01*
X44522Y-42488D01*
X44365Y-42552D01*
X44246Y-42672D01*
X44181Y-42828D01*
X44181Y-42997D01*
X44245Y-43153D01*
X44365Y-43273D01*
X44521Y-43338D01*
X44690Y-43338D01*
X44846Y-43273D01*
X44907Y-43213D01*
X47103Y-43213D01*
X47088Y-43224D01*
X46927Y-43224D01*
X46771Y-43289D01*
X46651Y-43408D01*
X46586Y-43564D01*
X46586Y-43733D01*
X46651Y-43890D01*
X46770Y-44009D01*
X46926Y-44074D01*
X47095Y-44074D01*
X47219Y-44023D01*
X47219Y-45600D01*
X47159Y-45660D01*
X47094Y-45816D01*
X47094Y-45985D01*
X47159Y-46142D01*
X47278Y-46261D01*
X47434Y-46326D01*
X47603Y-46326D01*
X47760Y-46262D01*
X47879Y-46142D01*
X47944Y-45986D01*
X47944Y-45817D01*
X47880Y-45661D01*
X47819Y-45600D01*
X47819Y-43848D01*
X47984Y-43684D01*
X48045Y-43830D01*
X48164Y-43950D01*
X48320Y-44015D01*
X48489Y-44015D01*
X48645Y-43951D01*
X48678Y-43918D01*
X49876Y-43918D01*
X49936Y-43978D01*
X50092Y-44043D01*
X50261Y-44043D01*
X50417Y-43978D01*
X50478Y-43918D01*
X50485Y-43918D01*
X50760Y-44192D01*
X50759Y-44277D01*
X50824Y-44433D01*
X50943Y-44553D01*
X51100Y-44617D01*
X51269Y-44617D01*
X51425Y-44553D01*
X51545Y-44433D01*
X51609Y-44277D01*
X51610Y-44108D01*
X51545Y-43952D01*
X51426Y-43832D01*
X51269Y-43767D01*
X51184Y-43767D01*
X50822Y-43405D01*
X50725Y-43340D01*
X50610Y-43318D01*
X50478Y-43318D01*
X50418Y-43258D01*
X50262Y-43193D01*
X50092Y-43193D01*
X49936Y-43257D01*
X49876Y-43318D01*
X48734Y-43318D01*
X48646Y-43230D01*
X48499Y-43169D01*
X49459Y-42208D01*
X49544Y-42208D01*
X49701Y-42143D01*
X49820Y-42024D01*
X49885Y-41868D01*
X49885Y-41699D01*
X49821Y-41543D01*
X49766Y-41488D01*
X50093Y-41134D01*
X50093Y-41299D01*
X50116Y-41414D01*
X50181Y-41511D01*
X51071Y-42400D01*
X51070Y-42485D01*
X51135Y-42642D01*
X51255Y-42761D01*
X51411Y-42826D01*
X51491Y-42826D01*
X51529Y-42917D01*
X51648Y-43037D01*
X51804Y-43102D01*
X51973Y-43102D01*
X52130Y-43037D01*
X52244Y-42923D01*
X52357Y-43037D01*
X52513Y-43102D01*
X52682Y-43102D01*
X52838Y-43037D01*
X52958Y-42918D01*
X53023Y-42762D01*
X53023Y-42592D01*
X52958Y-42436D01*
X52898Y-42376D01*
X52898Y-42239D01*
X52947Y-42289D01*
X53104Y-42354D01*
X53273Y-42354D01*
X53429Y-42289D01*
X53549Y-42170D01*
X53613Y-42014D01*
X53614Y-41844D01*
X53549Y-41688D01*
X53488Y-41628D01*
X53488Y-41349D01*
X53537Y-41369D01*
X53622Y-41369D01*
X53663Y-41410D01*
X53630Y-41489D01*
X53630Y-41658D01*
X53694Y-41815D01*
X53814Y-41934D01*
X53970Y-41999D01*
X54139Y-41999D01*
X54295Y-41935D01*
X54415Y-41815D01*
X54480Y-41659D01*
X54480Y-41490D01*
X54415Y-41334D01*
X54307Y-41226D01*
X54307Y-41226D01*
X54267Y-41165D01*
X54267Y-41165D01*
X54047Y-40945D01*
X54047Y-40860D01*
X53982Y-40704D01*
X53863Y-40584D01*
X53706Y-40519D01*
X53537Y-40519D01*
X53381Y-40584D01*
X53338Y-40627D01*
X53338Y-40624D01*
X53273Y-40468D01*
X53154Y-40348D01*
X52998Y-40283D01*
X52829Y-40283D01*
X52672Y-40348D01*
X52553Y-40467D01*
X52498Y-40598D01*
X52435Y-40598D01*
X52279Y-40663D01*
X52189Y-40752D01*
X52189Y-40006D01*
X52486Y-39709D01*
X54645Y-39709D01*
X54645Y-39709D01*
X54760Y-39686D01*
X54760Y-39686D01*
X54857Y-39621D01*
X54881Y-39598D01*
X54966Y-39598D01*
X55122Y-39533D01*
X55241Y-39414D01*
X55306Y-39258D01*
X55306Y-39089D01*
X55306Y-50901D01*
X54047Y-50901D01*
X54047Y-47002D01*
X53982Y-46846D01*
X53863Y-46726D01*
X53706Y-46661D01*
X53537Y-46661D01*
X53381Y-46726D01*
X53261Y-46845D01*
X53197Y-47001D01*
X53197Y-47087D01*
X52677Y-47606D01*
X52671Y-47606D01*
X52515Y-47670D01*
X52395Y-47790D01*
X52330Y-47946D01*
X52330Y-48115D01*
X52395Y-48271D01*
X52514Y-48391D01*
X52670Y-48456D01*
X52840Y-48456D01*
X52996Y-48392D01*
X53115Y-48272D01*
X53180Y-48116D01*
X53180Y-47951D01*
X53621Y-47511D01*
X53706Y-47511D01*
X53862Y-47447D01*
X53982Y-47327D01*
X54046Y-47171D01*
X54047Y-47002D01*
X54047Y-50901D01*
X49614Y-50901D01*
X49614Y-44407D01*
X49549Y-44251D01*
X49430Y-44132D01*
X49273Y-44067D01*
X49104Y-44067D01*
X48948Y-44131D01*
X48887Y-44192D01*
X48748Y-44192D01*
X48736Y-44194D01*
X48736Y-44194D01*
X48714Y-44185D01*
X48545Y-44185D01*
X48389Y-44249D01*
X48269Y-44369D01*
X48204Y-44525D01*
X48204Y-44694D01*
X48269Y-44850D01*
X48388Y-44970D01*
X48545Y-45035D01*
X48714Y-45035D01*
X48870Y-44970D01*
X48976Y-44864D01*
X49104Y-44917D01*
X49273Y-44917D01*
X49429Y-44852D01*
X49549Y-44733D01*
X49613Y-44577D01*
X49614Y-44407D01*
X49614Y-50901D01*
X41618Y-50901D01*
X41618Y-31775D01*
X56683Y-31775D01*
X56622Y-31922D01*
X56622Y-31937D01*
X55224Y-33335D01*
X55149Y-33448D01*
X55122Y-33582D01*
X55122Y-34748D01*
X55112Y-34758D01*
X55047Y-34915D01*
X55047Y-35084D01*
X55111Y-35240D01*
X55231Y-35360D01*
X55387Y-35424D01*
X55556Y-35425D01*
X55712Y-35360D01*
X55832Y-35241D01*
X55897Y-35084D01*
X55897Y-34915D01*
X55832Y-34759D01*
X55822Y-34749D01*
X55822Y-33727D01*
X57117Y-32432D01*
X57131Y-32432D01*
X57287Y-32368D01*
X57407Y-32248D01*
X57472Y-32092D01*
X57472Y-31923D01*
X57411Y-31775D01*
X57988Y-31775D01*
X57988Y-50901D01*
M02*
