G04 (created by PCBNEW (25-Oct-2014 BZR 4029)-stable) date Mon 07 Sep 2015 11:32:33 AM EDT*
%MOIN*%
G04 Gerber Fmt 3.4, Leading zero omitted, Abs format*
%FSLAX34Y34*%
G01*
G70*
G90*
G04 APERTURE LIST*
%ADD10C,0.00393701*%
%ADD11C,0.00492126*%
G04 APERTURE END LIST*
G54D10*
G54D11*
X54465Y-35434D02*
X54465Y-35237D01*
X54418Y-35237D01*
X54390Y-35246D01*
X54371Y-35265D01*
X54362Y-35284D01*
X54353Y-35321D01*
X54353Y-35349D01*
X54362Y-35387D01*
X54371Y-35405D01*
X54390Y-35424D01*
X54418Y-35434D01*
X54465Y-35434D01*
X54268Y-35434D02*
X54268Y-35302D01*
X54268Y-35340D02*
X54259Y-35321D01*
X54250Y-35312D01*
X54231Y-35302D01*
X54212Y-35302D01*
X54118Y-35434D02*
X54137Y-35424D01*
X54146Y-35415D01*
X54156Y-35396D01*
X54156Y-35340D01*
X54146Y-35321D01*
X54137Y-35312D01*
X54118Y-35302D01*
X54090Y-35302D01*
X54071Y-35312D01*
X54062Y-35321D01*
X54053Y-35340D01*
X54053Y-35396D01*
X54062Y-35415D01*
X54071Y-35424D01*
X54090Y-35434D01*
X54118Y-35434D01*
X53968Y-35302D02*
X53968Y-35434D01*
X53968Y-35321D02*
X53959Y-35312D01*
X53940Y-35302D01*
X53912Y-35302D01*
X53893Y-35312D01*
X53884Y-35330D01*
X53884Y-35434D01*
X53715Y-35424D02*
X53734Y-35434D01*
X53772Y-35434D01*
X53790Y-35424D01*
X53800Y-35405D01*
X53800Y-35330D01*
X53790Y-35312D01*
X53772Y-35302D01*
X53734Y-35302D01*
X53715Y-35312D01*
X53706Y-35330D01*
X53706Y-35349D01*
X53800Y-35368D01*
X53556Y-35330D02*
X53528Y-35340D01*
X53518Y-35349D01*
X53509Y-35368D01*
X53509Y-35396D01*
X53518Y-35415D01*
X53528Y-35424D01*
X53547Y-35434D01*
X53622Y-35434D01*
X53622Y-35237D01*
X53556Y-35237D01*
X53537Y-35246D01*
X53528Y-35255D01*
X53518Y-35274D01*
X53518Y-35293D01*
X53528Y-35312D01*
X53537Y-35321D01*
X53556Y-35330D01*
X53622Y-35330D01*
X53340Y-35302D02*
X53340Y-35434D01*
X53425Y-35302D02*
X53425Y-35405D01*
X53415Y-35424D01*
X53397Y-35434D01*
X53368Y-35434D01*
X53350Y-35424D01*
X53340Y-35415D01*
X53247Y-35434D02*
X53247Y-35302D01*
X53247Y-35321D02*
X53237Y-35312D01*
X53218Y-35302D01*
X53190Y-35302D01*
X53172Y-35312D01*
X53162Y-35330D01*
X53162Y-35434D01*
X53162Y-35330D02*
X53153Y-35312D01*
X53134Y-35302D01*
X53106Y-35302D01*
X53087Y-35312D01*
X53078Y-35330D01*
X53078Y-35434D01*
X52984Y-35302D02*
X52984Y-35499D01*
X52984Y-35312D02*
X52965Y-35302D01*
X52928Y-35302D01*
X52909Y-35312D01*
X52900Y-35321D01*
X52890Y-35340D01*
X52890Y-35396D01*
X52900Y-35415D01*
X52909Y-35424D01*
X52928Y-35434D01*
X52965Y-35434D01*
X52984Y-35424D01*
X52731Y-35424D02*
X52750Y-35434D01*
X52787Y-35434D01*
X52806Y-35424D01*
X52815Y-35405D01*
X52815Y-35330D01*
X52806Y-35312D01*
X52787Y-35302D01*
X52750Y-35302D01*
X52731Y-35312D01*
X52722Y-35330D01*
X52722Y-35349D01*
X52815Y-35368D01*
X52637Y-35434D02*
X52637Y-35302D01*
X52637Y-35340D02*
X52628Y-35321D01*
X52619Y-35312D01*
X52600Y-35302D01*
X52581Y-35302D01*
X52412Y-35434D02*
X52525Y-35434D01*
X52469Y-35434D02*
X52469Y-35237D01*
X52487Y-35265D01*
X52506Y-35284D01*
X52525Y-35293D01*
X52328Y-35359D02*
X52178Y-35359D01*
X51981Y-35434D02*
X52094Y-35434D01*
X52037Y-35434D02*
X52037Y-35237D01*
X52056Y-35265D01*
X52075Y-35284D01*
X52094Y-35293D01*
M02*
