G04 (created by PCBNEW (25-Oct-2014 BZR 4029)-stable) date Mon 07 Sep 2015 11:32:33 AM EDT*
%MOIN*%
G04 Gerber Fmt 3.4, Leading zero omitted, Abs format*
%FSLAX34Y34*%
G01*
G70*
G90*
G04 APERTURE LIST*
%ADD10C,0.00393701*%
%ADD11R,0.0275591X0.0708661*%
%ADD12R,0.0629921X0.0866142*%
%ADD13R,0.0473228X0.0118898*%
%ADD14R,0.0118898X0.0473228*%
%ADD15R,0.0748031X0.0748031*%
%ADD16R,0.0905512X0.0748031*%
%ADD17R,0.015748X0.0551181*%
%ADD18R,0.0275591X0.0393701*%
%ADD19R,0.0708661X0.0275591*%
%ADD20R,0.0866142X0.0629921*%
%ADD21R,0.0314961X0.0314961*%
%ADD22R,0.023622X0.0275591*%
%ADD23R,0.0275591X0.023622*%
%ADD24R,0.0413386X0.0255906*%
%ADD25R,0.220551X0.16937*%
%ADD26R,0.220472X0.169291*%
G04 APERTURE END LIST*
G54D10*
G54D11*
X46998Y-49212D03*
X46505Y-49212D03*
X47490Y-49212D03*
X47972Y-49212D03*
G54D12*
X48868Y-50275D03*
X45620Y-50275D03*
G54D13*
X48326Y-39665D03*
X48326Y-39862D03*
X48326Y-40059D03*
X48326Y-40255D03*
X48326Y-40452D03*
X48326Y-40649D03*
X48326Y-40846D03*
X48326Y-41043D03*
X48326Y-41240D03*
X48326Y-41437D03*
X48326Y-41633D03*
X48326Y-41830D03*
X51673Y-41830D03*
X51673Y-41633D03*
X51673Y-41437D03*
X51673Y-41240D03*
X51673Y-41043D03*
X51673Y-40846D03*
X51673Y-40649D03*
X51673Y-40452D03*
X51673Y-40255D03*
X51673Y-40059D03*
X51673Y-39862D03*
X51673Y-39665D03*
G54D14*
X48917Y-42421D03*
X49114Y-42421D03*
X49311Y-42421D03*
X49507Y-42421D03*
X49704Y-42421D03*
X49901Y-42421D03*
X50098Y-42421D03*
X50295Y-42421D03*
X50492Y-42421D03*
X50688Y-42421D03*
X50885Y-42421D03*
X51082Y-42421D03*
X51082Y-39074D03*
X50885Y-39074D03*
X50688Y-39074D03*
X50492Y-39074D03*
X50295Y-39074D03*
X50098Y-39074D03*
X49901Y-39074D03*
X49704Y-39074D03*
X49507Y-39074D03*
X49311Y-39074D03*
X49114Y-39074D03*
X48917Y-39074D03*
G54D15*
X50984Y-32204D03*
X50118Y-32204D03*
G54D16*
X52027Y-32204D03*
X49074Y-32204D03*
G54D17*
X50551Y-33326D03*
X50807Y-33326D03*
X51062Y-33326D03*
X50295Y-33326D03*
X50039Y-33326D03*
G54D18*
X47598Y-32047D03*
X47972Y-32047D03*
X47224Y-32047D03*
X47972Y-32992D03*
X47224Y-32992D03*
G54D11*
X44419Y-33346D03*
X44911Y-33346D03*
X45403Y-33346D03*
X43927Y-33346D03*
X43435Y-33346D03*
X42942Y-33346D03*
G54D12*
X42057Y-32283D03*
X46289Y-32283D03*
G54D11*
X46998Y-46850D03*
X46505Y-46850D03*
X47490Y-46850D03*
X47972Y-46850D03*
G54D12*
X48868Y-47913D03*
X45620Y-47913D03*
G54D19*
X43307Y-37549D03*
X43307Y-37057D03*
X43307Y-38041D03*
X43307Y-38523D03*
G54D20*
X42244Y-39419D03*
X42244Y-36171D03*
G54D19*
X43307Y-42273D03*
X43307Y-41781D03*
X43307Y-42765D03*
X43307Y-43248D03*
G54D20*
X42244Y-44143D03*
X42244Y-40895D03*
G54D19*
X43307Y-46998D03*
X43307Y-46505D03*
X43307Y-47490D03*
X43307Y-47972D03*
G54D20*
X42244Y-48868D03*
X42244Y-45620D03*
G54D11*
X52116Y-49212D03*
X51624Y-49212D03*
X52608Y-49212D03*
X53090Y-49212D03*
G54D12*
X53986Y-50275D03*
X50738Y-50275D03*
G54D11*
X52116Y-46850D03*
X51624Y-46850D03*
X52608Y-46850D03*
X53090Y-46850D03*
G54D12*
X53986Y-47913D03*
X50738Y-47913D03*
G54D19*
X56299Y-47490D03*
X56299Y-47982D03*
X56299Y-46998D03*
X56299Y-46515D03*
G54D20*
X57362Y-45620D03*
X57362Y-48868D03*
G54D19*
X56299Y-42765D03*
X56299Y-43257D03*
X56299Y-42273D03*
X56299Y-41791D03*
G54D20*
X57362Y-40895D03*
X57362Y-44143D03*
G54D19*
X56299Y-38041D03*
X56299Y-38533D03*
X56299Y-37549D03*
X56299Y-37066D03*
G54D20*
X57362Y-36171D03*
X57362Y-39419D03*
G54D21*
X48267Y-35137D03*
X48267Y-34547D03*
G54D22*
X48031Y-37401D03*
X48425Y-37401D03*
G54D23*
X46732Y-41181D03*
X46732Y-41574D03*
X52952Y-39566D03*
X52952Y-39960D03*
G54D22*
X50905Y-43110D03*
X51299Y-43110D03*
X48425Y-36811D03*
X48031Y-36811D03*
G54D23*
X53543Y-39566D03*
X53543Y-39960D03*
X46062Y-41181D03*
X46062Y-41574D03*
G54D22*
X50905Y-43543D03*
X51299Y-43543D03*
X48818Y-36220D03*
X48425Y-36220D03*
X46929Y-33779D03*
X47322Y-33779D03*
X47874Y-33779D03*
X48267Y-33779D03*
G54D24*
X49773Y-38175D03*
X49773Y-37328D03*
X51407Y-38175D03*
X51407Y-37328D03*
X48423Y-44064D03*
X48423Y-43218D03*
X50057Y-44064D03*
X50057Y-43218D03*
G54D23*
X50314Y-35944D03*
X50314Y-36338D03*
G54D25*
X53169Y-34409D03*
G54D26*
X56673Y-34409D03*
M02*
