M48
;DRILL file {Pcbnew (25-Oct-2014 BZR 4029)-stable} date Mon 07 Sep 2015 11:32:36 AM EDT
;FORMAT={-:-/ absolute / inch / decimal}
FMAT,2
INCH,TZ
T1C0.025
%
G90
G05
M72
T1
X4.2362Y-3.7362
X4.3307Y-3.9173
X4.4094Y-4.5866
X4.4331Y-3.748
X4.4449Y-3.4213
X4.4449Y-3.5945
X4.4449Y-3.6811
X4.4488Y-3.8858
X4.4528Y-4.1024
X4.4606Y-4.2913
X4.4882Y-3.9961
X4.5394Y-4.1614
X4.5394Y-4.2205
X4.5669Y-4.0945
X4.5827Y-3.9724
X4.6024Y-3.5118
X4.6063Y-4.6732
X4.6102Y-4.2008
X4.6142Y-4.3268
X4.626Y-3.7244
X4.6299Y-3.9803
X4.6496Y-4.8307
X4.7008Y-4.7756
X4.7012Y-4.365
X4.7047Y-3.9567
X4.7047Y-4.4213
X4.7283Y-3.7677
X4.7362Y-3.4567
X4.752Y-4.5902
X4.7559Y-3.9331
X4.7598Y-3.8858
X4.7717Y-4.1535
X4.789Y-4.4791
X4.7953Y-3.6327
X4.8406Y-4.3591
X4.8465Y-3.8858
X4.8583Y-3.3386
X4.863Y-4.461
X4.8661Y-3.7953
X4.8858Y-4.1181
X4.9173Y-3.9685
X4.9173Y-4.0551
X4.9189Y-4.4492
X4.9461Y-4.1783
X4.9528Y-4.0787
X4.9606Y-4.0276
X4.9634Y-3.6807
X4.974Y-4.463
X5.0059Y-3.6748
X5.0079Y-3.7709
X5.0177Y-4.3618
X5.0394Y-3.8583
X5.0669Y-3.8228
X5.0709Y-4.5551
X5.0827Y-3.6772
X5.0945Y-3.9567
X5.0984Y-4.4803
X5.1024Y-3.7717
X5.1142Y-4.1535
X5.1185Y-4.4193
X5.1339Y-3.6535
X5.1378Y-3.8622
X5.1496Y-4.2402
X5.189Y-4.2677
X5.2244Y-3.815
X5.2244Y-4.311
X5.2362Y-3.8622
X5.252Y-4.1024
X5.2598Y-4.2677
X5.2756Y-4.8031
X5.2913Y-4.0709
X5.3189Y-4.1929
X5.3622Y-4.0945
X5.3622Y-4.7087
X5.4055Y-4.1575
X5.4606Y-3.9961
X5.4724Y-4.1772
X5.4882Y-3.9173
X5.5039Y-4.5236
X5.5315Y-4.3268
X5.5394Y-4.1732
X5.563Y-4.
X5.6063Y-4.5236
X5.6614Y-3.5472
X5.7008Y-3.8346
T0
M30
