G04 (created by PCBNEW (25-Oct-2014 BZR 4029)-stable) date Mon 07 Sep 2015 11:32:33 AM EDT*
%MOIN*%
G04 Gerber Fmt 3.4, Leading zero omitted, Abs format*
%FSLAX34Y34*%
G01*
G70*
G90*
G04 APERTURE LIST*
%ADD10C,0.00393701*%
%ADD11R,0.0275591X0.0708661*%
%ADD12R,0.0629921X0.0866142*%
%ADD13R,0.0472441X0.011811*%
%ADD14R,0.011811X0.0472441*%
%ADD15R,0.0748031X0.0748031*%
%ADD16R,0.0905512X0.0748031*%
%ADD17R,0.015748X0.0551181*%
%ADD18R,0.0275591X0.0393701*%
%ADD19R,0.0708661X0.0275591*%
%ADD20R,0.0866142X0.0629921*%
%ADD21R,0.0314961X0.0314961*%
%ADD22R,0.023622X0.0275591*%
%ADD23R,0.0275591X0.023622*%
%ADD24R,0.0413386X0.0255906*%
%ADD25R,0.220472X0.169291*%
%ADD26C,0.035*%
%ADD27C,0.02*%
%ADD28C,0.01*%
G04 APERTURE END LIST*
G54D10*
G54D11*
X46998Y-49212D03*
X46505Y-49212D03*
X47490Y-49212D03*
X47972Y-49212D03*
G54D12*
X48868Y-50275D03*
X45620Y-50275D03*
G54D13*
X48326Y-39665D03*
X48326Y-39862D03*
X48326Y-40059D03*
X48326Y-40255D03*
X48326Y-40452D03*
X48326Y-40649D03*
X48326Y-40846D03*
X48326Y-41043D03*
X48326Y-41240D03*
X48326Y-41437D03*
X48326Y-41633D03*
X48326Y-41830D03*
X51673Y-41830D03*
X51673Y-41633D03*
X51673Y-41437D03*
X51673Y-41240D03*
X51673Y-41043D03*
X51673Y-40846D03*
X51673Y-40649D03*
X51673Y-40452D03*
X51673Y-40255D03*
X51673Y-40059D03*
X51673Y-39862D03*
X51673Y-39665D03*
G54D14*
X48917Y-42421D03*
X49114Y-42421D03*
X49311Y-42421D03*
X49507Y-42421D03*
X49704Y-42421D03*
X49901Y-42421D03*
X50098Y-42421D03*
X50295Y-42421D03*
X50492Y-42421D03*
X50688Y-42421D03*
X50885Y-42421D03*
X51082Y-42421D03*
X51082Y-39074D03*
X50885Y-39074D03*
X50688Y-39074D03*
X50492Y-39074D03*
X50295Y-39074D03*
X50098Y-39074D03*
X49901Y-39074D03*
X49704Y-39074D03*
X49507Y-39074D03*
X49311Y-39074D03*
X49114Y-39074D03*
X48917Y-39074D03*
G54D15*
X50984Y-32204D03*
X50118Y-32204D03*
G54D16*
X52027Y-32204D03*
X49074Y-32204D03*
G54D17*
X50551Y-33326D03*
X50807Y-33326D03*
X51062Y-33326D03*
X50295Y-33326D03*
X50039Y-33326D03*
G54D18*
X47598Y-32047D03*
X47972Y-32047D03*
X47224Y-32047D03*
X47972Y-32992D03*
X47224Y-32992D03*
G54D11*
X44419Y-33346D03*
X44911Y-33346D03*
X45403Y-33346D03*
X43927Y-33346D03*
X43435Y-33346D03*
X42942Y-33346D03*
G54D12*
X42057Y-32283D03*
X46289Y-32283D03*
G54D11*
X46998Y-46850D03*
X46505Y-46850D03*
X47490Y-46850D03*
X47972Y-46850D03*
G54D12*
X48868Y-47913D03*
X45620Y-47913D03*
G54D19*
X43307Y-37549D03*
X43307Y-37057D03*
X43307Y-38041D03*
X43307Y-38523D03*
G54D20*
X42244Y-39419D03*
X42244Y-36171D03*
G54D19*
X43307Y-42273D03*
X43307Y-41781D03*
X43307Y-42765D03*
X43307Y-43248D03*
G54D20*
X42244Y-44143D03*
X42244Y-40895D03*
G54D19*
X43307Y-46998D03*
X43307Y-46505D03*
X43307Y-47490D03*
X43307Y-47972D03*
G54D20*
X42244Y-48868D03*
X42244Y-45620D03*
G54D11*
X52116Y-49212D03*
X51624Y-49212D03*
X52608Y-49212D03*
X53090Y-49212D03*
G54D12*
X53986Y-50275D03*
X50738Y-50275D03*
G54D11*
X52116Y-46850D03*
X51624Y-46850D03*
X52608Y-46850D03*
X53090Y-46850D03*
G54D12*
X53986Y-47913D03*
X50738Y-47913D03*
G54D19*
X56299Y-47490D03*
X56299Y-47982D03*
X56299Y-46998D03*
X56299Y-46515D03*
G54D20*
X57362Y-45620D03*
X57362Y-48868D03*
G54D19*
X56299Y-42765D03*
X56299Y-43257D03*
X56299Y-42273D03*
X56299Y-41791D03*
G54D20*
X57362Y-40895D03*
X57362Y-44143D03*
G54D19*
X56299Y-38041D03*
X56299Y-38533D03*
X56299Y-37549D03*
X56299Y-37066D03*
G54D20*
X57362Y-36171D03*
X57362Y-39419D03*
G54D21*
X48267Y-35137D03*
X48267Y-34547D03*
G54D22*
X48031Y-37401D03*
X48425Y-37401D03*
G54D23*
X46732Y-41181D03*
X46732Y-41574D03*
X52952Y-39566D03*
X52952Y-39960D03*
G54D22*
X50905Y-43110D03*
X51299Y-43110D03*
X48425Y-36811D03*
X48031Y-36811D03*
G54D23*
X53543Y-39566D03*
X53543Y-39960D03*
X46062Y-41181D03*
X46062Y-41574D03*
G54D22*
X50905Y-43543D03*
X51299Y-43543D03*
X48818Y-36220D03*
X48425Y-36220D03*
X46929Y-33779D03*
X47322Y-33779D03*
X47874Y-33779D03*
X48267Y-33779D03*
G54D24*
X49773Y-38175D03*
X49773Y-37328D03*
X51407Y-38175D03*
X51407Y-37328D03*
X48423Y-44064D03*
X48423Y-43218D03*
X50057Y-44064D03*
X50057Y-43218D03*
G54D23*
X50314Y-35944D03*
X50314Y-36338D03*
G54D25*
X53169Y-34409D03*
X56673Y-34409D03*
G54D26*
X47362Y-34566D03*
X48582Y-33385D03*
X50059Y-36748D03*
X50826Y-36771D03*
X49633Y-36807D03*
X47952Y-36326D03*
X51889Y-42677D03*
X54881Y-39173D03*
X47047Y-39566D03*
X46102Y-42007D03*
X47598Y-38858D03*
X48464Y-38858D03*
X56614Y-35472D03*
X46141Y-43267D03*
X47047Y-44212D03*
X46023Y-35118D03*
X44448Y-36811D03*
X46496Y-48307D03*
X47007Y-47755D03*
X54606Y-39960D03*
X55629Y-40000D03*
X57007Y-38346D03*
X49740Y-44629D03*
X47889Y-44791D03*
X48661Y-37952D03*
X44881Y-39960D03*
X50708Y-45551D03*
X50984Y-44803D03*
X55314Y-43267D03*
X55393Y-41732D03*
X42362Y-37362D03*
X43307Y-39173D03*
X45393Y-42204D03*
X44527Y-41023D03*
X56062Y-45236D03*
X55039Y-45236D03*
X46062Y-46732D03*
X44094Y-45866D03*
X52244Y-43110D03*
X54724Y-41771D03*
X45669Y-40944D03*
X46299Y-39803D03*
X44330Y-37480D03*
X44488Y-38858D03*
X44448Y-34212D03*
X44448Y-35944D03*
X47559Y-39330D03*
X47716Y-41535D03*
X46259Y-37244D03*
X50669Y-38228D03*
X47011Y-43649D03*
X49606Y-40275D03*
X44606Y-42913D03*
X49527Y-40787D03*
X49173Y-40551D03*
X48858Y-41181D03*
X52244Y-38149D03*
X50944Y-39566D03*
X47283Y-37677D03*
X50393Y-38582D03*
X52362Y-38622D03*
X51141Y-41535D03*
X54055Y-41574D03*
X53622Y-40944D03*
X53188Y-41929D03*
X52913Y-40708D03*
X48405Y-43590D03*
X51185Y-44192D03*
X50177Y-43618D03*
X51023Y-37716D03*
X50078Y-37708D03*
X51338Y-36535D03*
X51377Y-38622D03*
X49188Y-44492D03*
X48629Y-44610D03*
X52755Y-48031D03*
X53622Y-47086D03*
X51496Y-42401D03*
X49173Y-39685D03*
X45393Y-41614D03*
X45826Y-39724D03*
X52598Y-42677D03*
X52519Y-41023D03*
X47519Y-45901D03*
X49460Y-41783D03*
G54D27*
X47874Y-33779D02*
X47874Y-34055D01*
X47874Y-34055D02*
X47362Y-34566D01*
X47972Y-32992D02*
X48188Y-32992D01*
X47401Y-35775D02*
X47952Y-36326D01*
X47401Y-34606D02*
X47401Y-35775D01*
X47362Y-34566D02*
X47401Y-34606D01*
X48188Y-32992D02*
X48582Y-33385D01*
G54D28*
X51850Y-37322D02*
X51545Y-37328D01*
X49773Y-37033D02*
X49773Y-37328D01*
X50059Y-36748D02*
X49773Y-37033D01*
X51206Y-36780D02*
X50826Y-36771D01*
X51545Y-37328D02*
X51206Y-36780D01*
X49773Y-37328D02*
X49773Y-36946D01*
X49773Y-36946D02*
X49633Y-36807D01*
X47952Y-36326D02*
X47787Y-36492D01*
X47787Y-36492D02*
X47787Y-36566D01*
X47787Y-36566D02*
X48031Y-36811D01*
X51673Y-39665D02*
X51968Y-38858D01*
X51968Y-37480D02*
X51850Y-37322D01*
X51968Y-37755D02*
X51968Y-37480D01*
X51968Y-38031D02*
X51968Y-37755D01*
X51968Y-38858D02*
X51968Y-38031D01*
X46732Y-41574D02*
X46062Y-41574D01*
X54606Y-39212D02*
X54842Y-39212D01*
X51456Y-43110D02*
X51299Y-43110D01*
X51889Y-42677D02*
X51456Y-43110D01*
X54842Y-39212D02*
X54881Y-39173D01*
X46062Y-41574D02*
X46062Y-41968D01*
X47145Y-39665D02*
X48326Y-39665D01*
X47047Y-39566D02*
X47145Y-39665D01*
X46062Y-41968D02*
X46102Y-42007D01*
X48326Y-39665D02*
X48326Y-39586D01*
X48326Y-39586D02*
X47598Y-38858D01*
X48464Y-38858D02*
X48681Y-39074D01*
X48681Y-39074D02*
X48917Y-39074D01*
X53543Y-39566D02*
X54251Y-39566D01*
X54251Y-39566D02*
X54606Y-39212D01*
X51673Y-39665D02*
X52854Y-39665D01*
X52854Y-39665D02*
X52952Y-39566D01*
X52952Y-39566D02*
X53543Y-39566D01*
X51299Y-43110D02*
X51299Y-42637D01*
X51299Y-42637D02*
X51082Y-42421D01*
X48326Y-41240D02*
X47263Y-41240D01*
X46929Y-41574D02*
X46062Y-41574D01*
X47263Y-41240D02*
X46929Y-41574D01*
X48031Y-37401D02*
X48031Y-36811D01*
X48917Y-39074D02*
X48917Y-38799D01*
X48031Y-37913D02*
X48031Y-37401D01*
X48917Y-38799D02*
X48031Y-37913D01*
G54D27*
X54685Y-34960D02*
X54685Y-35157D01*
X54685Y-35157D02*
X54566Y-35157D01*
X54566Y-35157D02*
X54566Y-35275D01*
X54803Y-34960D02*
X54685Y-34960D01*
X54685Y-34960D02*
X54566Y-34960D01*
X54015Y-35511D02*
X53976Y-35511D01*
X54566Y-34960D02*
X54015Y-35511D01*
X56299Y-37066D02*
X56299Y-36771D01*
X56299Y-36771D02*
X54724Y-35196D01*
X56299Y-37066D02*
X56299Y-37007D01*
X54566Y-35275D02*
X54566Y-35157D01*
X56299Y-37007D02*
X54566Y-35275D01*
X56299Y-37066D02*
X56003Y-37066D01*
X56003Y-37066D02*
X54330Y-35393D01*
X56299Y-37066D02*
X55846Y-37066D01*
X55846Y-37066D02*
X54173Y-35393D01*
X56299Y-37066D02*
X56299Y-37047D01*
X56496Y-36496D02*
X54960Y-34960D01*
X56496Y-36850D02*
X56496Y-36496D01*
X56299Y-37047D02*
X56496Y-36850D01*
X56299Y-37066D02*
X56299Y-36574D01*
X54803Y-35078D02*
X54803Y-34960D01*
X54803Y-34960D02*
X54803Y-35039D01*
X56299Y-36574D02*
X54803Y-35078D01*
X54566Y-35157D02*
X54566Y-35118D01*
X54566Y-35157D02*
X54566Y-35157D01*
X56299Y-37066D02*
X56161Y-37066D01*
X53503Y-34409D02*
X53169Y-34409D01*
X56161Y-37066D02*
X53503Y-34409D01*
X41574Y-38976D02*
X41574Y-34714D01*
X41574Y-34714D02*
X42942Y-33346D01*
X47362Y-31692D02*
X43503Y-31692D01*
X43503Y-31692D02*
X42942Y-32253D01*
X42942Y-32253D02*
X42942Y-33346D01*
X47972Y-32047D02*
X47972Y-31751D01*
X47224Y-31830D02*
X47224Y-32047D01*
X47362Y-31692D02*
X47224Y-31830D01*
X47913Y-31692D02*
X47362Y-31692D01*
X47972Y-31751D02*
X47913Y-31692D01*
X51062Y-33326D02*
X51062Y-32952D01*
X47972Y-32381D02*
X47972Y-32047D01*
X48425Y-32834D02*
X48110Y-32519D01*
X48110Y-32519D02*
X47972Y-32381D01*
X50944Y-32834D02*
X48425Y-32834D01*
X51062Y-32952D02*
X50944Y-32834D01*
X53169Y-34409D02*
X52145Y-34409D01*
X52145Y-34409D02*
X51062Y-33326D01*
X41574Y-43700D02*
X41574Y-38976D01*
X42027Y-38523D02*
X43307Y-38523D01*
X41574Y-38976D02*
X42027Y-38523D01*
X43307Y-47972D02*
X42893Y-47972D01*
X42027Y-43248D02*
X43307Y-43248D01*
X41574Y-43700D02*
X42027Y-43248D01*
X41574Y-46653D02*
X41574Y-43700D01*
X42893Y-47972D02*
X41574Y-46653D01*
X48464Y-50905D02*
X44251Y-50905D01*
X43307Y-49960D02*
X43307Y-47972D01*
X44251Y-50905D02*
X43307Y-49960D01*
X47972Y-49212D02*
X47972Y-46850D01*
X53090Y-49212D02*
X53090Y-50019D01*
X47972Y-50413D02*
X47972Y-49212D01*
X48464Y-50905D02*
X47972Y-50413D01*
X52204Y-50905D02*
X48464Y-50905D01*
X53090Y-50019D02*
X52204Y-50905D01*
X58011Y-46043D02*
X58011Y-49271D01*
X53444Y-49566D02*
X53090Y-49212D01*
X57716Y-49566D02*
X53444Y-49566D01*
X58011Y-49271D02*
X57716Y-49566D01*
X53090Y-49212D02*
X53090Y-46850D01*
X58011Y-41397D02*
X58011Y-46043D01*
X57539Y-46515D02*
X56299Y-46515D01*
X58011Y-46043D02*
X57539Y-46515D01*
X56299Y-37066D02*
X56830Y-37066D01*
X57618Y-41791D02*
X56299Y-41791D01*
X58031Y-41377D02*
X58011Y-41397D01*
X58011Y-41397D02*
X57618Y-41791D01*
X58031Y-38267D02*
X58031Y-41377D01*
X56830Y-37066D02*
X58031Y-38267D01*
X50039Y-33326D02*
X49311Y-33326D01*
X48858Y-33779D02*
X48267Y-33779D01*
X49311Y-33326D02*
X48858Y-33779D01*
X56712Y-35374D02*
X56673Y-34409D01*
X56614Y-35472D02*
X56712Y-35374D01*
X48423Y-44064D02*
X47194Y-44064D01*
X45393Y-42519D02*
X45393Y-42204D01*
X46141Y-43267D02*
X45393Y-42519D01*
X47194Y-44064D02*
X47047Y-44212D01*
X43307Y-37057D02*
X44202Y-37057D01*
X45403Y-34498D02*
X45403Y-33346D01*
X46023Y-35118D02*
X45403Y-34498D01*
X44202Y-37057D02*
X44448Y-36811D01*
X43307Y-37057D02*
X42667Y-37057D01*
X42667Y-37057D02*
X42362Y-37362D01*
X47322Y-33779D02*
X47322Y-33937D01*
X47322Y-33937D02*
X47125Y-34133D01*
X47125Y-34133D02*
X46732Y-34133D01*
X46732Y-34133D02*
X46417Y-33818D01*
X46417Y-33818D02*
X46417Y-33622D01*
X46417Y-33622D02*
X46141Y-33346D01*
X46141Y-33346D02*
X45403Y-33346D01*
X47598Y-32047D02*
X47598Y-33425D01*
X47598Y-33425D02*
X48228Y-33425D01*
X48228Y-33425D02*
X48267Y-33464D01*
X48267Y-33464D02*
X48267Y-33779D01*
X47598Y-33425D02*
X47322Y-33700D01*
X47322Y-33700D02*
X47322Y-33779D01*
X43307Y-46505D02*
X43454Y-46505D01*
X43454Y-46505D02*
X44094Y-45866D01*
X43307Y-41781D02*
X43307Y-39173D01*
X44527Y-41023D02*
X44527Y-40314D01*
X44527Y-40314D02*
X44881Y-39960D01*
X43307Y-41781D02*
X43769Y-41781D01*
X43769Y-41781D02*
X44527Y-41023D01*
X47889Y-44791D02*
X47964Y-44791D01*
X48423Y-44332D02*
X48423Y-44064D01*
X47964Y-44791D02*
X48423Y-44332D01*
X46505Y-46850D02*
X46505Y-45738D01*
X46505Y-45738D02*
X48179Y-44064D01*
X48179Y-44064D02*
X48423Y-44064D01*
X46062Y-46732D02*
X46062Y-46771D01*
X46141Y-46850D02*
X46505Y-46850D01*
X46062Y-46771D02*
X46141Y-46850D01*
X47007Y-47755D02*
X46968Y-47755D01*
X46968Y-47755D02*
X46505Y-47293D01*
X46505Y-47293D02*
X46505Y-46850D01*
X46505Y-49212D02*
X46505Y-48316D01*
X46505Y-48316D02*
X46496Y-48307D01*
X54724Y-41771D02*
X55354Y-41771D01*
X55354Y-41771D02*
X55393Y-41732D01*
X56299Y-43257D02*
X55324Y-43257D01*
X55324Y-43257D02*
X55314Y-43267D01*
X56062Y-45236D02*
X56299Y-45000D01*
X56299Y-45000D02*
X56299Y-43257D01*
X56299Y-47982D02*
X55620Y-47982D01*
X55620Y-47982D02*
X55039Y-47401D01*
X55039Y-47401D02*
X55039Y-45236D01*
X51624Y-46850D02*
X51624Y-49212D01*
X51624Y-46850D02*
X51624Y-46466D01*
X51624Y-46466D02*
X50708Y-45551D01*
X50708Y-45551D02*
X50057Y-44899D01*
X50057Y-44899D02*
X50057Y-44064D01*
X55629Y-40000D02*
X55669Y-40000D01*
X56299Y-39370D02*
X56299Y-38533D01*
X55669Y-40000D02*
X56299Y-39370D01*
G54D28*
X51673Y-39862D02*
X52854Y-39862D01*
X52854Y-39862D02*
X52952Y-39960D01*
G54D27*
X53543Y-39960D02*
X52952Y-39960D01*
X55393Y-41732D02*
X55393Y-40236D01*
X55393Y-40236D02*
X55629Y-40000D01*
X54606Y-39960D02*
X53543Y-39960D01*
X56299Y-38533D02*
X56820Y-38533D01*
X56820Y-38533D02*
X57007Y-38346D01*
G54D28*
X48425Y-36220D02*
X48425Y-36023D01*
X47814Y-34547D02*
X48267Y-34547D01*
X47716Y-34645D02*
X47814Y-34547D01*
X47716Y-35314D02*
X47716Y-34645D01*
X48425Y-36023D02*
X47716Y-35314D01*
X48267Y-33779D02*
X48267Y-34547D01*
X48267Y-33779D02*
X48267Y-33464D01*
X48267Y-33464D02*
X48228Y-33425D01*
X48228Y-33425D02*
X47598Y-33425D01*
X47598Y-33425D02*
X47598Y-33503D01*
X47598Y-33503D02*
X47322Y-33779D01*
X51624Y-46466D02*
X50708Y-45551D01*
X50057Y-44312D02*
X50057Y-44064D01*
X49740Y-44629D02*
X50057Y-44312D01*
X48423Y-44064D02*
X48179Y-44064D01*
X48179Y-44064D02*
X46505Y-45738D01*
X50057Y-44064D02*
X50057Y-44899D01*
X48425Y-37716D02*
X48425Y-37401D01*
X48661Y-37952D02*
X48425Y-37716D01*
X44527Y-40314D02*
X44881Y-39960D01*
X55324Y-43257D02*
X55314Y-43267D01*
X42362Y-37362D02*
X42667Y-37057D01*
X45866Y-41181D02*
X46062Y-41181D01*
X45393Y-42204D02*
X45708Y-41889D01*
X45708Y-41889D02*
X45708Y-41338D01*
X45708Y-41338D02*
X45866Y-41181D01*
X43769Y-41781D02*
X44527Y-41023D01*
X56299Y-45000D02*
X56299Y-43257D01*
X55039Y-47401D02*
X55039Y-45236D01*
X55620Y-47982D02*
X55039Y-47401D01*
X44094Y-45866D02*
X43454Y-46505D01*
X46505Y-48316D02*
X46496Y-48307D01*
X50905Y-43543D02*
X50905Y-43110D01*
X50905Y-43110D02*
X50885Y-43090D01*
X50885Y-43090D02*
X50885Y-42421D01*
X48326Y-41043D02*
X46870Y-41043D01*
X46870Y-41043D02*
X46732Y-41181D01*
X46732Y-41181D02*
X46062Y-41181D01*
X49114Y-39074D02*
X49114Y-37618D01*
X49114Y-37618D02*
X48897Y-37401D01*
X48897Y-37401D02*
X48425Y-37401D01*
X48425Y-37401D02*
X48425Y-36811D01*
X48425Y-36811D02*
X48425Y-36220D01*
X52125Y-44803D02*
X50984Y-44803D01*
X52362Y-44566D02*
X52125Y-44803D01*
X52362Y-43228D02*
X52362Y-44566D01*
X52244Y-43110D02*
X52362Y-43228D01*
X50905Y-44724D02*
X50905Y-43543D01*
X50984Y-44803D02*
X50905Y-44724D01*
X50492Y-42421D02*
X50492Y-44704D01*
X52116Y-45738D02*
X52116Y-46850D01*
X51692Y-45314D02*
X52116Y-45738D01*
X51102Y-45314D02*
X51692Y-45314D01*
X50492Y-44704D02*
X51102Y-45314D01*
X48917Y-42421D02*
X48917Y-46200D01*
X52608Y-49596D02*
X52608Y-49212D01*
X52047Y-50157D02*
X52608Y-49596D01*
X51614Y-50157D02*
X52047Y-50157D01*
X49409Y-47952D02*
X51614Y-50157D01*
X49409Y-46692D02*
X49409Y-47952D01*
X48917Y-46200D02*
X49409Y-46692D01*
X48326Y-41830D02*
X48248Y-41830D01*
X47490Y-49753D02*
X47490Y-49212D01*
X47125Y-50118D02*
X47490Y-49753D01*
X46496Y-50118D02*
X47125Y-50118D01*
X45905Y-49527D02*
X46496Y-50118D01*
X45157Y-49527D02*
X45905Y-49527D01*
X44251Y-48622D02*
X45157Y-49527D01*
X44251Y-47952D02*
X44251Y-48622D01*
X45275Y-46929D02*
X44251Y-47952D01*
X45275Y-44803D02*
X45275Y-46929D01*
X48248Y-41830D02*
X45275Y-44803D01*
X48326Y-40059D02*
X46555Y-40059D01*
X43848Y-42765D02*
X43307Y-42765D01*
X45669Y-40944D02*
X43848Y-42765D01*
X46555Y-40059D02*
X46299Y-39803D01*
X48326Y-39862D02*
X46791Y-39862D01*
X44970Y-38041D02*
X43307Y-38041D01*
X46791Y-39862D02*
X44970Y-38041D01*
X48326Y-40649D02*
X45374Y-40649D01*
X43750Y-42273D02*
X43307Y-42273D01*
X45374Y-40649D02*
X43750Y-42273D01*
X48326Y-40452D02*
X46082Y-40452D01*
X44261Y-37549D02*
X43307Y-37549D01*
X44330Y-37480D02*
X44261Y-37549D01*
X46082Y-40452D02*
X44488Y-38858D01*
X48326Y-41633D02*
X47814Y-41633D01*
X44419Y-34183D02*
X44419Y-33346D01*
X44448Y-34212D02*
X44419Y-34183D01*
X44448Y-36220D02*
X44448Y-35944D01*
X47559Y-39330D02*
X44448Y-36220D01*
X47814Y-41633D02*
X47716Y-41535D01*
X51082Y-39074D02*
X51082Y-38641D01*
X43435Y-34419D02*
X43435Y-33346D01*
X46259Y-37244D02*
X43435Y-34419D01*
X51082Y-38641D02*
X50669Y-38228D01*
X49507Y-39074D02*
X49507Y-40177D01*
X46998Y-48179D02*
X46998Y-49212D01*
X45708Y-47007D02*
X46998Y-48179D01*
X45984Y-45157D02*
X45708Y-47007D01*
X47011Y-43649D02*
X45984Y-45157D01*
X49507Y-40177D02*
X49606Y-40275D01*
X49901Y-39074D02*
X49901Y-40413D01*
X43946Y-46998D02*
X43307Y-46998D01*
X44488Y-46456D02*
X43946Y-46998D01*
X44488Y-43031D02*
X44488Y-46456D01*
X44606Y-42913D02*
X44488Y-43031D01*
X49901Y-40413D02*
X49527Y-40787D01*
X51673Y-41437D02*
X53720Y-41437D01*
X55856Y-38041D02*
X56299Y-38041D01*
X55511Y-38385D02*
X55856Y-38041D01*
X55511Y-39645D02*
X55511Y-38385D01*
X53720Y-41437D02*
X55511Y-39645D01*
X48326Y-41437D02*
X48641Y-41437D01*
X44911Y-34753D02*
X44911Y-33346D01*
X47874Y-37716D02*
X44911Y-34753D01*
X47874Y-38740D02*
X47874Y-37716D01*
X48779Y-39645D02*
X47874Y-38740D01*
X48779Y-40157D02*
X48779Y-39645D01*
X49173Y-40551D02*
X48779Y-40157D01*
X48858Y-41220D02*
X48858Y-41181D01*
X48641Y-41437D02*
X48858Y-41220D01*
X51673Y-40452D02*
X51279Y-40452D01*
X50826Y-33346D02*
X50807Y-33326D01*
X50826Y-34921D02*
X50826Y-33346D01*
X52244Y-36338D02*
X50826Y-34921D01*
X52244Y-38149D02*
X52244Y-36338D01*
X50944Y-40118D02*
X50944Y-39566D01*
X51279Y-40452D02*
X50944Y-40118D01*
X50885Y-39074D02*
X50885Y-38838D01*
X43927Y-34124D02*
X43927Y-33346D01*
X47283Y-37677D02*
X43927Y-34124D01*
X50629Y-38582D02*
X50393Y-38582D01*
X50885Y-38838D02*
X50629Y-38582D01*
X48267Y-35137D02*
X48267Y-35472D01*
X48740Y-35944D02*
X50314Y-35944D01*
X48267Y-35472D02*
X48740Y-35944D01*
X50098Y-39074D02*
X50098Y-38484D01*
X50393Y-36417D02*
X50314Y-36338D01*
X50393Y-38188D02*
X50393Y-36417D01*
X50098Y-38484D02*
X50393Y-38188D01*
X51673Y-41830D02*
X51437Y-41830D01*
X53435Y-37549D02*
X56299Y-37549D01*
X52362Y-38622D02*
X53435Y-37549D01*
X51437Y-41830D02*
X51141Y-41535D01*
X51673Y-41633D02*
X53602Y-41633D01*
X54734Y-42765D02*
X56299Y-42765D01*
X53602Y-41633D02*
X54734Y-42765D01*
X51673Y-40649D02*
X52066Y-40649D01*
X54753Y-42273D02*
X56299Y-42273D01*
X54055Y-41574D02*
X54753Y-42273D01*
X53070Y-40393D02*
X53622Y-40944D01*
X52322Y-40393D02*
X53070Y-40393D01*
X52066Y-40649D02*
X52322Y-40393D01*
X51673Y-40846D02*
X52224Y-40846D01*
X55974Y-46998D02*
X56299Y-46998D01*
X55748Y-46771D02*
X55974Y-46998D01*
X55748Y-44488D02*
X55748Y-46771D01*
X53188Y-41929D02*
X55748Y-44488D01*
X52362Y-40708D02*
X52913Y-40708D01*
X52224Y-40846D02*
X52362Y-40708D01*
X50688Y-42421D02*
X50688Y-42106D01*
X55718Y-47490D02*
X56299Y-47490D01*
X55511Y-47283D02*
X55718Y-47490D01*
X55511Y-44645D02*
X55511Y-47283D01*
X52850Y-42106D02*
X55511Y-44645D01*
X50791Y-42000D02*
X52850Y-42106D01*
X50688Y-42106D02*
X50791Y-42000D01*
X47224Y-32992D02*
X47224Y-33129D01*
X46929Y-33425D02*
X46929Y-33779D01*
X47224Y-33129D02*
X46929Y-33425D01*
X48423Y-43218D02*
X48423Y-43572D01*
X48423Y-43572D02*
X48405Y-43590D01*
X51299Y-43543D02*
X51299Y-44078D01*
X51299Y-44078D02*
X51185Y-44192D01*
X50057Y-43498D02*
X50057Y-43218D01*
X50177Y-43618D02*
X50057Y-43498D01*
X48326Y-40846D02*
X48944Y-40846D01*
X48423Y-42387D02*
X48423Y-43218D01*
X49169Y-41641D02*
X48423Y-42387D01*
X49169Y-41070D02*
X49169Y-41641D01*
X48944Y-40846D02*
X49169Y-41070D01*
X49773Y-38175D02*
X49773Y-38013D01*
X51545Y-38175D02*
X51407Y-38175D01*
X51023Y-37716D02*
X51545Y-38175D01*
X49773Y-38013D02*
X50078Y-37708D01*
X49773Y-38175D02*
X49773Y-37891D01*
X48818Y-36527D02*
X48818Y-36220D01*
X49251Y-36960D02*
X48818Y-36527D01*
X49251Y-37370D02*
X49251Y-36960D01*
X49773Y-37891D02*
X49251Y-37370D01*
X49704Y-39074D02*
X49704Y-38244D01*
X49704Y-38244D02*
X49773Y-38175D01*
X51673Y-40255D02*
X51358Y-40255D01*
X50551Y-35748D02*
X50551Y-33326D01*
X51338Y-36535D02*
X50551Y-35748D01*
X51338Y-38661D02*
X51377Y-38622D01*
X51338Y-40236D02*
X51338Y-38661D01*
X51358Y-40255D02*
X51338Y-40236D01*
X46998Y-46850D02*
X46998Y-45923D01*
X50295Y-42724D02*
X50295Y-42421D01*
X50232Y-42917D02*
X50295Y-42724D01*
X49314Y-42901D02*
X50232Y-42917D01*
X49196Y-43362D02*
X49314Y-42901D01*
X49196Y-44484D02*
X49196Y-43362D01*
X49188Y-44492D02*
X49196Y-44484D01*
X47948Y-45291D02*
X48629Y-44610D01*
X47629Y-45291D02*
X47948Y-45291D01*
X46998Y-45923D02*
X47629Y-45291D01*
X49311Y-39074D02*
X49271Y-39586D01*
X52116Y-48671D02*
X52116Y-49212D01*
X52755Y-48031D02*
X52116Y-48671D01*
X53622Y-43188D02*
X53622Y-47086D01*
X52716Y-42283D02*
X53622Y-43188D01*
X51614Y-42283D02*
X52716Y-42283D01*
X51496Y-42401D02*
X51614Y-42283D01*
X49271Y-39586D02*
X49173Y-39685D01*
X48326Y-40255D02*
X46358Y-40255D01*
X44084Y-47490D02*
X43307Y-47490D01*
X44881Y-46692D02*
X44084Y-47490D01*
X44881Y-42125D02*
X44881Y-46692D01*
X45393Y-41614D02*
X44881Y-42125D01*
X46358Y-40255D02*
X45826Y-39724D01*
X51673Y-41043D02*
X52500Y-41043D01*
X52608Y-43001D02*
X52608Y-46850D01*
X52598Y-42677D02*
X52608Y-43001D01*
X52500Y-41043D02*
X52519Y-41023D01*
X51673Y-41240D02*
X50003Y-41240D01*
X47490Y-45931D02*
X47490Y-46850D01*
X47519Y-45901D02*
X47490Y-45931D01*
X50003Y-41240D02*
X49460Y-41783D01*
G54D10*
G36*
X45144Y-50901D02*
X43911Y-50901D01*
X43911Y-48159D01*
X43911Y-48084D01*
X43848Y-48022D01*
X43357Y-48022D01*
X43357Y-48297D01*
X43419Y-48360D01*
X43611Y-48360D01*
X43711Y-48360D01*
X43803Y-48322D01*
X43873Y-48251D01*
X43911Y-48159D01*
X43911Y-50901D01*
X43257Y-50901D01*
X43257Y-48297D01*
X43257Y-48022D01*
X42765Y-48022D01*
X42702Y-48084D01*
X42702Y-48159D01*
X42740Y-48251D01*
X42810Y-48322D01*
X42902Y-48360D01*
X43002Y-48360D01*
X43194Y-48360D01*
X43257Y-48297D01*
X43257Y-50901D01*
X41618Y-50901D01*
X41618Y-49343D01*
X41669Y-49394D01*
X41761Y-49433D01*
X41860Y-49433D01*
X42726Y-49433D01*
X42818Y-49395D01*
X42888Y-49324D01*
X42927Y-49233D01*
X42927Y-49133D01*
X42927Y-48503D01*
X42889Y-48411D01*
X42818Y-48341D01*
X42727Y-48303D01*
X42627Y-48303D01*
X41761Y-48303D01*
X41669Y-48341D01*
X41618Y-48392D01*
X41618Y-46095D01*
X41669Y-46146D01*
X41761Y-46184D01*
X41860Y-46185D01*
X42726Y-46185D01*
X42818Y-46147D01*
X42888Y-46076D01*
X42927Y-45984D01*
X42927Y-45885D01*
X42927Y-45255D01*
X42889Y-45163D01*
X42818Y-45093D01*
X42727Y-45055D01*
X42627Y-45055D01*
X41761Y-45055D01*
X41669Y-45093D01*
X41618Y-45144D01*
X41618Y-44619D01*
X41669Y-44670D01*
X41761Y-44708D01*
X41860Y-44708D01*
X42726Y-44708D01*
X42818Y-44670D01*
X42888Y-44600D01*
X42927Y-44508D01*
X42927Y-44409D01*
X42927Y-43779D01*
X42889Y-43687D01*
X42818Y-43616D01*
X42727Y-43578D01*
X42627Y-43578D01*
X41761Y-43578D01*
X41669Y-43616D01*
X41618Y-43668D01*
X41618Y-41371D01*
X41669Y-41422D01*
X41761Y-41460D01*
X41860Y-41460D01*
X42726Y-41460D01*
X42818Y-41422D01*
X42888Y-41352D01*
X42927Y-41260D01*
X42927Y-41161D01*
X42927Y-40531D01*
X42889Y-40439D01*
X42818Y-40368D01*
X42727Y-40330D01*
X42627Y-40330D01*
X41761Y-40330D01*
X41669Y-40368D01*
X41618Y-40420D01*
X41618Y-39894D01*
X41669Y-39946D01*
X41761Y-39984D01*
X41860Y-39984D01*
X42726Y-39984D01*
X42818Y-39946D01*
X42888Y-39876D01*
X42927Y-39784D01*
X42927Y-39684D01*
X42927Y-39366D01*
X42946Y-39413D01*
X42957Y-39424D01*
X42957Y-41393D01*
X42903Y-41393D01*
X42811Y-41431D01*
X42740Y-41501D01*
X42702Y-41593D01*
X42702Y-41693D01*
X42702Y-41968D01*
X42727Y-42027D01*
X42702Y-42085D01*
X42702Y-42185D01*
X42702Y-42460D01*
X42727Y-42519D01*
X42702Y-42578D01*
X42702Y-42677D01*
X42702Y-42953D01*
X42724Y-43006D01*
X42702Y-43060D01*
X42702Y-43135D01*
X42765Y-43198D01*
X43257Y-43198D01*
X43257Y-43190D01*
X43357Y-43190D01*
X43357Y-43198D01*
X43848Y-43198D01*
X43911Y-43135D01*
X43911Y-43060D01*
X43908Y-43053D01*
X43963Y-43042D01*
X43963Y-43042D01*
X44060Y-42977D01*
X44181Y-42857D01*
X44181Y-42997D01*
X44190Y-43019D01*
X44188Y-43031D01*
X44188Y-45444D01*
X44179Y-45441D01*
X44010Y-45441D01*
X43911Y-45481D01*
X43911Y-43435D01*
X43911Y-43360D01*
X43848Y-43298D01*
X43357Y-43298D01*
X43357Y-43573D01*
X43419Y-43635D01*
X43611Y-43635D01*
X43711Y-43635D01*
X43803Y-43597D01*
X43873Y-43527D01*
X43911Y-43435D01*
X43911Y-45481D01*
X43854Y-45505D01*
X43734Y-45625D01*
X43669Y-45781D01*
X43669Y-45796D01*
X43347Y-46118D01*
X43257Y-46118D01*
X43257Y-43573D01*
X43257Y-43298D01*
X42765Y-43298D01*
X42702Y-43360D01*
X42702Y-43435D01*
X42740Y-43527D01*
X42810Y-43597D01*
X42902Y-43635D01*
X43002Y-43635D01*
X43194Y-43635D01*
X43257Y-43573D01*
X43257Y-46118D01*
X42903Y-46118D01*
X42811Y-46156D01*
X42740Y-46226D01*
X42702Y-46318D01*
X42702Y-46417D01*
X42702Y-46693D01*
X42727Y-46751D01*
X42702Y-46810D01*
X42702Y-46909D01*
X42702Y-47185D01*
X42727Y-47244D01*
X42702Y-47302D01*
X42702Y-47401D01*
X42702Y-47677D01*
X42724Y-47731D01*
X42702Y-47785D01*
X42702Y-47859D01*
X42765Y-47922D01*
X43257Y-47922D01*
X43257Y-47914D01*
X43357Y-47914D01*
X43357Y-47922D01*
X43848Y-47922D01*
X43911Y-47859D01*
X43911Y-47790D01*
X44006Y-47790D01*
X43974Y-47837D01*
X43951Y-47952D01*
X43951Y-48622D01*
X43974Y-48736D01*
X44039Y-48834D01*
X44945Y-49739D01*
X44945Y-49739D01*
X45042Y-49804D01*
X45055Y-49807D01*
X45055Y-49892D01*
X45055Y-50758D01*
X45093Y-50850D01*
X45144Y-50901D01*
X45144Y-50901D01*
G37*
G54D28*
X45144Y-50901D02*
X43911Y-50901D01*
X43911Y-48159D01*
X43911Y-48084D01*
X43848Y-48022D01*
X43357Y-48022D01*
X43357Y-48297D01*
X43419Y-48360D01*
X43611Y-48360D01*
X43711Y-48360D01*
X43803Y-48322D01*
X43873Y-48251D01*
X43911Y-48159D01*
X43911Y-50901D01*
X43257Y-50901D01*
X43257Y-48297D01*
X43257Y-48022D01*
X42765Y-48022D01*
X42702Y-48084D01*
X42702Y-48159D01*
X42740Y-48251D01*
X42810Y-48322D01*
X42902Y-48360D01*
X43002Y-48360D01*
X43194Y-48360D01*
X43257Y-48297D01*
X43257Y-50901D01*
X41618Y-50901D01*
X41618Y-49343D01*
X41669Y-49394D01*
X41761Y-49433D01*
X41860Y-49433D01*
X42726Y-49433D01*
X42818Y-49395D01*
X42888Y-49324D01*
X42927Y-49233D01*
X42927Y-49133D01*
X42927Y-48503D01*
X42889Y-48411D01*
X42818Y-48341D01*
X42727Y-48303D01*
X42627Y-48303D01*
X41761Y-48303D01*
X41669Y-48341D01*
X41618Y-48392D01*
X41618Y-46095D01*
X41669Y-46146D01*
X41761Y-46184D01*
X41860Y-46185D01*
X42726Y-46185D01*
X42818Y-46147D01*
X42888Y-46076D01*
X42927Y-45984D01*
X42927Y-45885D01*
X42927Y-45255D01*
X42889Y-45163D01*
X42818Y-45093D01*
X42727Y-45055D01*
X42627Y-45055D01*
X41761Y-45055D01*
X41669Y-45093D01*
X41618Y-45144D01*
X41618Y-44619D01*
X41669Y-44670D01*
X41761Y-44708D01*
X41860Y-44708D01*
X42726Y-44708D01*
X42818Y-44670D01*
X42888Y-44600D01*
X42927Y-44508D01*
X42927Y-44409D01*
X42927Y-43779D01*
X42889Y-43687D01*
X42818Y-43616D01*
X42727Y-43578D01*
X42627Y-43578D01*
X41761Y-43578D01*
X41669Y-43616D01*
X41618Y-43668D01*
X41618Y-41371D01*
X41669Y-41422D01*
X41761Y-41460D01*
X41860Y-41460D01*
X42726Y-41460D01*
X42818Y-41422D01*
X42888Y-41352D01*
X42927Y-41260D01*
X42927Y-41161D01*
X42927Y-40531D01*
X42889Y-40439D01*
X42818Y-40368D01*
X42727Y-40330D01*
X42627Y-40330D01*
X41761Y-40330D01*
X41669Y-40368D01*
X41618Y-40420D01*
X41618Y-39894D01*
X41669Y-39946D01*
X41761Y-39984D01*
X41860Y-39984D01*
X42726Y-39984D01*
X42818Y-39946D01*
X42888Y-39876D01*
X42927Y-39784D01*
X42927Y-39684D01*
X42927Y-39366D01*
X42946Y-39413D01*
X42957Y-39424D01*
X42957Y-41393D01*
X42903Y-41393D01*
X42811Y-41431D01*
X42740Y-41501D01*
X42702Y-41593D01*
X42702Y-41693D01*
X42702Y-41968D01*
X42727Y-42027D01*
X42702Y-42085D01*
X42702Y-42185D01*
X42702Y-42460D01*
X42727Y-42519D01*
X42702Y-42578D01*
X42702Y-42677D01*
X42702Y-42953D01*
X42724Y-43006D01*
X42702Y-43060D01*
X42702Y-43135D01*
X42765Y-43198D01*
X43257Y-43198D01*
X43257Y-43190D01*
X43357Y-43190D01*
X43357Y-43198D01*
X43848Y-43198D01*
X43911Y-43135D01*
X43911Y-43060D01*
X43908Y-43053D01*
X43963Y-43042D01*
X43963Y-43042D01*
X44060Y-42977D01*
X44181Y-42857D01*
X44181Y-42997D01*
X44190Y-43019D01*
X44188Y-43031D01*
X44188Y-45444D01*
X44179Y-45441D01*
X44010Y-45441D01*
X43911Y-45481D01*
X43911Y-43435D01*
X43911Y-43360D01*
X43848Y-43298D01*
X43357Y-43298D01*
X43357Y-43573D01*
X43419Y-43635D01*
X43611Y-43635D01*
X43711Y-43635D01*
X43803Y-43597D01*
X43873Y-43527D01*
X43911Y-43435D01*
X43911Y-45481D01*
X43854Y-45505D01*
X43734Y-45625D01*
X43669Y-45781D01*
X43669Y-45796D01*
X43347Y-46118D01*
X43257Y-46118D01*
X43257Y-43573D01*
X43257Y-43298D01*
X42765Y-43298D01*
X42702Y-43360D01*
X42702Y-43435D01*
X42740Y-43527D01*
X42810Y-43597D01*
X42902Y-43635D01*
X43002Y-43635D01*
X43194Y-43635D01*
X43257Y-43573D01*
X43257Y-46118D01*
X42903Y-46118D01*
X42811Y-46156D01*
X42740Y-46226D01*
X42702Y-46318D01*
X42702Y-46417D01*
X42702Y-46693D01*
X42727Y-46751D01*
X42702Y-46810D01*
X42702Y-46909D01*
X42702Y-47185D01*
X42727Y-47244D01*
X42702Y-47302D01*
X42702Y-47401D01*
X42702Y-47677D01*
X42724Y-47731D01*
X42702Y-47785D01*
X42702Y-47859D01*
X42765Y-47922D01*
X43257Y-47922D01*
X43257Y-47914D01*
X43357Y-47914D01*
X43357Y-47922D01*
X43848Y-47922D01*
X43911Y-47859D01*
X43911Y-47790D01*
X44006Y-47790D01*
X43974Y-47837D01*
X43951Y-47952D01*
X43951Y-48622D01*
X43974Y-48736D01*
X44039Y-48834D01*
X44945Y-49739D01*
X44945Y-49739D01*
X45042Y-49804D01*
X45055Y-49807D01*
X45055Y-49892D01*
X45055Y-50758D01*
X45093Y-50850D01*
X45144Y-50901D01*
G54D10*
G36*
X45804Y-39299D02*
X45742Y-39299D01*
X45586Y-39363D01*
X45502Y-39447D01*
X44913Y-38859D01*
X44913Y-38774D01*
X44848Y-38617D01*
X44729Y-38498D01*
X44573Y-38433D01*
X44404Y-38433D01*
X44247Y-38497D01*
X44128Y-38617D01*
X44063Y-38773D01*
X44063Y-38942D01*
X44127Y-39098D01*
X44247Y-39218D01*
X44403Y-39283D01*
X44488Y-39283D01*
X44757Y-39552D01*
X44641Y-39600D01*
X44521Y-39719D01*
X44456Y-39875D01*
X44456Y-39890D01*
X44280Y-40067D01*
X44204Y-40181D01*
X44177Y-40314D01*
X44177Y-40772D01*
X44167Y-40782D01*
X44102Y-40938D01*
X44102Y-40953D01*
X43662Y-41393D01*
X43657Y-41393D01*
X43657Y-39424D01*
X43667Y-39414D01*
X43732Y-39258D01*
X43732Y-39089D01*
X43667Y-38932D01*
X43646Y-38911D01*
X43711Y-38911D01*
X43803Y-38873D01*
X43873Y-38802D01*
X43911Y-38710D01*
X43911Y-38636D01*
X43848Y-38573D01*
X43357Y-38573D01*
X43357Y-38581D01*
X43257Y-38581D01*
X43257Y-38573D01*
X42765Y-38573D01*
X42702Y-38636D01*
X42702Y-38710D01*
X42740Y-38802D01*
X42810Y-38873D01*
X42902Y-38911D01*
X42967Y-38911D01*
X42946Y-38932D01*
X42911Y-39017D01*
X42889Y-38962D01*
X42818Y-38892D01*
X42727Y-38854D01*
X42627Y-38854D01*
X41761Y-38854D01*
X41669Y-38892D01*
X41618Y-38943D01*
X41618Y-36646D01*
X41669Y-36698D01*
X41761Y-36736D01*
X41860Y-36736D01*
X42529Y-36736D01*
X42419Y-36809D01*
X42292Y-36937D01*
X42278Y-36937D01*
X42121Y-37001D01*
X42002Y-37121D01*
X41937Y-37277D01*
X41937Y-37446D01*
X42001Y-37602D01*
X42121Y-37722D01*
X42277Y-37787D01*
X42446Y-37787D01*
X42602Y-37722D01*
X42702Y-37622D01*
X42702Y-37736D01*
X42727Y-37795D01*
X42702Y-37853D01*
X42702Y-37953D01*
X42702Y-38228D01*
X42724Y-38282D01*
X42702Y-38336D01*
X42702Y-38411D01*
X42765Y-38473D01*
X43257Y-38473D01*
X43257Y-38465D01*
X43357Y-38465D01*
X43357Y-38473D01*
X43848Y-38473D01*
X43911Y-38411D01*
X43911Y-38341D01*
X44846Y-38341D01*
X45804Y-39299D01*
X45804Y-39299D01*
G37*
G54D28*
X45804Y-39299D02*
X45742Y-39299D01*
X45586Y-39363D01*
X45502Y-39447D01*
X44913Y-38859D01*
X44913Y-38774D01*
X44848Y-38617D01*
X44729Y-38498D01*
X44573Y-38433D01*
X44404Y-38433D01*
X44247Y-38497D01*
X44128Y-38617D01*
X44063Y-38773D01*
X44063Y-38942D01*
X44127Y-39098D01*
X44247Y-39218D01*
X44403Y-39283D01*
X44488Y-39283D01*
X44757Y-39552D01*
X44641Y-39600D01*
X44521Y-39719D01*
X44456Y-39875D01*
X44456Y-39890D01*
X44280Y-40067D01*
X44204Y-40181D01*
X44177Y-40314D01*
X44177Y-40772D01*
X44167Y-40782D01*
X44102Y-40938D01*
X44102Y-40953D01*
X43662Y-41393D01*
X43657Y-41393D01*
X43657Y-39424D01*
X43667Y-39414D01*
X43732Y-39258D01*
X43732Y-39089D01*
X43667Y-38932D01*
X43646Y-38911D01*
X43711Y-38911D01*
X43803Y-38873D01*
X43873Y-38802D01*
X43911Y-38710D01*
X43911Y-38636D01*
X43848Y-38573D01*
X43357Y-38573D01*
X43357Y-38581D01*
X43257Y-38581D01*
X43257Y-38573D01*
X42765Y-38573D01*
X42702Y-38636D01*
X42702Y-38710D01*
X42740Y-38802D01*
X42810Y-38873D01*
X42902Y-38911D01*
X42967Y-38911D01*
X42946Y-38932D01*
X42911Y-39017D01*
X42889Y-38962D01*
X42818Y-38892D01*
X42727Y-38854D01*
X42627Y-38854D01*
X41761Y-38854D01*
X41669Y-38892D01*
X41618Y-38943D01*
X41618Y-36646D01*
X41669Y-36698D01*
X41761Y-36736D01*
X41860Y-36736D01*
X42529Y-36736D01*
X42419Y-36809D01*
X42292Y-36937D01*
X42278Y-36937D01*
X42121Y-37001D01*
X42002Y-37121D01*
X41937Y-37277D01*
X41937Y-37446D01*
X42001Y-37602D01*
X42121Y-37722D01*
X42277Y-37787D01*
X42446Y-37787D01*
X42602Y-37722D01*
X42702Y-37622D01*
X42702Y-37736D01*
X42727Y-37795D01*
X42702Y-37853D01*
X42702Y-37953D01*
X42702Y-38228D01*
X42724Y-38282D01*
X42702Y-38336D01*
X42702Y-38411D01*
X42765Y-38473D01*
X43257Y-38473D01*
X43257Y-38465D01*
X43357Y-38465D01*
X43357Y-38473D01*
X43848Y-38473D01*
X43911Y-38411D01*
X43911Y-38341D01*
X44846Y-38341D01*
X45804Y-39299D01*
G54D10*
G36*
X46836Y-32809D02*
X46836Y-32844D01*
X46836Y-33093D01*
X46717Y-33213D01*
X46651Y-33310D01*
X46643Y-33353D01*
X46389Y-33098D01*
X46275Y-33023D01*
X46141Y-32996D01*
X45791Y-32996D01*
X45791Y-32942D01*
X45753Y-32850D01*
X45683Y-32780D01*
X45591Y-32742D01*
X45491Y-32742D01*
X45216Y-32742D01*
X45157Y-32766D01*
X45099Y-32742D01*
X44999Y-32742D01*
X44724Y-32742D01*
X44665Y-32766D01*
X44607Y-32742D01*
X44507Y-32742D01*
X44231Y-32742D01*
X44173Y-32766D01*
X44114Y-32742D01*
X44015Y-32742D01*
X43739Y-32742D01*
X43681Y-32766D01*
X43622Y-32742D01*
X43523Y-32742D01*
X43247Y-32742D01*
X43188Y-32766D01*
X43130Y-32742D01*
X43055Y-32742D01*
X42992Y-32804D01*
X42992Y-33296D01*
X43000Y-33296D01*
X43000Y-33396D01*
X42992Y-33396D01*
X42992Y-33888D01*
X43055Y-33950D01*
X43130Y-33950D01*
X43135Y-33948D01*
X43135Y-34419D01*
X43157Y-34534D01*
X43222Y-34631D01*
X44192Y-35600D01*
X44088Y-35703D01*
X44023Y-35859D01*
X44023Y-36029D01*
X44088Y-36185D01*
X44155Y-36252D01*
X44155Y-36252D01*
X44171Y-36335D01*
X44236Y-36432D01*
X44241Y-36437D01*
X44208Y-36450D01*
X44088Y-36569D01*
X44031Y-36707D01*
X43802Y-36707D01*
X43711Y-36669D01*
X43611Y-36669D01*
X42903Y-36669D01*
X42811Y-36707D01*
X42797Y-36707D01*
X42818Y-36698D01*
X42888Y-36628D01*
X42927Y-36536D01*
X42927Y-36436D01*
X42927Y-35806D01*
X42892Y-35723D01*
X42892Y-33888D01*
X42892Y-33396D01*
X42892Y-33296D01*
X42892Y-32804D01*
X42830Y-32742D01*
X42755Y-32742D01*
X42663Y-32780D01*
X42593Y-32850D01*
X42555Y-32942D01*
X42555Y-33041D01*
X42555Y-33233D01*
X42617Y-33296D01*
X42892Y-33296D01*
X42892Y-33396D01*
X42617Y-33396D01*
X42555Y-33458D01*
X42555Y-33651D01*
X42555Y-33750D01*
X42593Y-33842D01*
X42663Y-33912D01*
X42755Y-33950D01*
X42830Y-33950D01*
X42892Y-33888D01*
X42892Y-35723D01*
X42889Y-35714D01*
X42818Y-35644D01*
X42727Y-35606D01*
X42627Y-35606D01*
X41761Y-35606D01*
X41669Y-35644D01*
X41618Y-35695D01*
X41618Y-32935D01*
X41692Y-32966D01*
X41791Y-32966D01*
X42421Y-32966D01*
X42513Y-32928D01*
X42583Y-32858D01*
X42622Y-32766D01*
X42622Y-32667D01*
X42622Y-31800D01*
X42611Y-31775D01*
X45734Y-31775D01*
X45724Y-31800D01*
X45724Y-31899D01*
X45724Y-32766D01*
X45762Y-32857D01*
X45832Y-32928D01*
X45924Y-32966D01*
X46023Y-32966D01*
X46653Y-32966D01*
X46745Y-32928D01*
X46816Y-32858D01*
X46836Y-32809D01*
X46836Y-32809D01*
G37*
G54D28*
X46836Y-32809D02*
X46836Y-32844D01*
X46836Y-33093D01*
X46717Y-33213D01*
X46651Y-33310D01*
X46643Y-33353D01*
X46389Y-33098D01*
X46275Y-33023D01*
X46141Y-32996D01*
X45791Y-32996D01*
X45791Y-32942D01*
X45753Y-32850D01*
X45683Y-32780D01*
X45591Y-32742D01*
X45491Y-32742D01*
X45216Y-32742D01*
X45157Y-32766D01*
X45099Y-32742D01*
X44999Y-32742D01*
X44724Y-32742D01*
X44665Y-32766D01*
X44607Y-32742D01*
X44507Y-32742D01*
X44231Y-32742D01*
X44173Y-32766D01*
X44114Y-32742D01*
X44015Y-32742D01*
X43739Y-32742D01*
X43681Y-32766D01*
X43622Y-32742D01*
X43523Y-32742D01*
X43247Y-32742D01*
X43188Y-32766D01*
X43130Y-32742D01*
X43055Y-32742D01*
X42992Y-32804D01*
X42992Y-33296D01*
X43000Y-33296D01*
X43000Y-33396D01*
X42992Y-33396D01*
X42992Y-33888D01*
X43055Y-33950D01*
X43130Y-33950D01*
X43135Y-33948D01*
X43135Y-34419D01*
X43157Y-34534D01*
X43222Y-34631D01*
X44192Y-35600D01*
X44088Y-35703D01*
X44023Y-35859D01*
X44023Y-36029D01*
X44088Y-36185D01*
X44155Y-36252D01*
X44155Y-36252D01*
X44171Y-36335D01*
X44236Y-36432D01*
X44241Y-36437D01*
X44208Y-36450D01*
X44088Y-36569D01*
X44031Y-36707D01*
X43802Y-36707D01*
X43711Y-36669D01*
X43611Y-36669D01*
X42903Y-36669D01*
X42811Y-36707D01*
X42797Y-36707D01*
X42818Y-36698D01*
X42888Y-36628D01*
X42927Y-36536D01*
X42927Y-36436D01*
X42927Y-35806D01*
X42892Y-35723D01*
X42892Y-33888D01*
X42892Y-33396D01*
X42892Y-33296D01*
X42892Y-32804D01*
X42830Y-32742D01*
X42755Y-32742D01*
X42663Y-32780D01*
X42593Y-32850D01*
X42555Y-32942D01*
X42555Y-33041D01*
X42555Y-33233D01*
X42617Y-33296D01*
X42892Y-33296D01*
X42892Y-33396D01*
X42617Y-33396D01*
X42555Y-33458D01*
X42555Y-33651D01*
X42555Y-33750D01*
X42593Y-33842D01*
X42663Y-33912D01*
X42755Y-33950D01*
X42830Y-33950D01*
X42892Y-33888D01*
X42892Y-35723D01*
X42889Y-35714D01*
X42818Y-35644D01*
X42727Y-35606D01*
X42627Y-35606D01*
X41761Y-35606D01*
X41669Y-35644D01*
X41618Y-35695D01*
X41618Y-32935D01*
X41692Y-32966D01*
X41791Y-32966D01*
X42421Y-32966D01*
X42513Y-32928D01*
X42583Y-32858D01*
X42622Y-32766D01*
X42622Y-32667D01*
X42622Y-31800D01*
X42611Y-31775D01*
X45734Y-31775D01*
X45724Y-31800D01*
X45724Y-31899D01*
X45724Y-32766D01*
X45762Y-32857D01*
X45832Y-32928D01*
X45924Y-32966D01*
X46023Y-32966D01*
X46653Y-32966D01*
X46745Y-32928D01*
X46816Y-32858D01*
X46836Y-32809D01*
G54D10*
G36*
X48430Y-32740D02*
X48360Y-32693D01*
X48360Y-32194D01*
X48360Y-32159D01*
X48297Y-32097D01*
X48022Y-32097D01*
X48022Y-32431D01*
X48084Y-32494D01*
X48159Y-32494D01*
X48251Y-32456D01*
X48322Y-32385D01*
X48360Y-32294D01*
X48360Y-32194D01*
X48360Y-32693D01*
X48330Y-32673D01*
X48330Y-32673D01*
X48322Y-32653D01*
X48252Y-32583D01*
X48160Y-32545D01*
X48060Y-32545D01*
X47948Y-32545D01*
X47948Y-32384D01*
X47986Y-32294D01*
X47986Y-32194D01*
X47986Y-31989D01*
X48022Y-31989D01*
X48022Y-31997D01*
X48297Y-31997D01*
X48360Y-31934D01*
X48360Y-31899D01*
X48360Y-31800D01*
X48349Y-31775D01*
X48374Y-31775D01*
X48372Y-31780D01*
X48372Y-31880D01*
X48372Y-32628D01*
X48409Y-32720D01*
X48430Y-32740D01*
X48430Y-32740D01*
G37*
G54D28*
X48430Y-32740D02*
X48360Y-32693D01*
X48360Y-32194D01*
X48360Y-32159D01*
X48297Y-32097D01*
X48022Y-32097D01*
X48022Y-32431D01*
X48084Y-32494D01*
X48159Y-32494D01*
X48251Y-32456D01*
X48322Y-32385D01*
X48360Y-32294D01*
X48360Y-32194D01*
X48360Y-32693D01*
X48330Y-32673D01*
X48330Y-32673D01*
X48322Y-32653D01*
X48252Y-32583D01*
X48160Y-32545D01*
X48060Y-32545D01*
X47948Y-32545D01*
X47948Y-32384D01*
X47986Y-32294D01*
X47986Y-32194D01*
X47986Y-31989D01*
X48022Y-31989D01*
X48022Y-31997D01*
X48297Y-31997D01*
X48360Y-31934D01*
X48360Y-31899D01*
X48360Y-31800D01*
X48349Y-31775D01*
X48374Y-31775D01*
X48372Y-31780D01*
X48372Y-31880D01*
X48372Y-32628D01*
X48409Y-32720D01*
X48430Y-32740D01*
G54D10*
G36*
X50624Y-49592D02*
X50373Y-49592D01*
X50281Y-49630D01*
X50211Y-49700D01*
X50173Y-49792D01*
X50173Y-49892D01*
X50173Y-50758D01*
X50211Y-50850D01*
X50262Y-50901D01*
X49343Y-50901D01*
X49394Y-50850D01*
X49433Y-50758D01*
X49433Y-50659D01*
X49433Y-49793D01*
X49395Y-49701D01*
X49324Y-49630D01*
X49233Y-49592D01*
X49133Y-49592D01*
X48503Y-49592D01*
X48411Y-49630D01*
X48360Y-49681D01*
X48360Y-49517D01*
X48360Y-48907D01*
X48360Y-48808D01*
X48322Y-48716D01*
X48251Y-48646D01*
X48159Y-48608D01*
X48084Y-48608D01*
X48022Y-48670D01*
X48022Y-49162D01*
X48297Y-49162D01*
X48360Y-49100D01*
X48360Y-48907D01*
X48360Y-49517D01*
X48360Y-49325D01*
X48297Y-49262D01*
X48022Y-49262D01*
X48022Y-49754D01*
X48084Y-49816D01*
X48159Y-49816D01*
X48251Y-49778D01*
X48322Y-49708D01*
X48360Y-49616D01*
X48360Y-49517D01*
X48360Y-49681D01*
X48341Y-49700D01*
X48303Y-49792D01*
X48303Y-49892D01*
X48303Y-50758D01*
X48341Y-50850D01*
X48392Y-50901D01*
X46095Y-50901D01*
X46146Y-50850D01*
X46184Y-50758D01*
X46185Y-50659D01*
X46185Y-50231D01*
X46283Y-50330D01*
X46283Y-50330D01*
X46381Y-50395D01*
X46496Y-50418D01*
X47125Y-50418D01*
X47125Y-50418D01*
X47240Y-50395D01*
X47240Y-50395D01*
X47338Y-50330D01*
X47702Y-49966D01*
X47702Y-49966D01*
X47767Y-49868D01*
X47778Y-49814D01*
X47785Y-49816D01*
X47859Y-49816D01*
X47922Y-49754D01*
X47922Y-49262D01*
X47914Y-49262D01*
X47914Y-49162D01*
X47922Y-49162D01*
X47922Y-48670D01*
X47859Y-48608D01*
X47785Y-48608D01*
X47731Y-48630D01*
X47677Y-48608D01*
X47578Y-48608D01*
X47302Y-48608D01*
X47298Y-48610D01*
X47298Y-48179D01*
X47296Y-48169D01*
X47296Y-48166D01*
X47290Y-48140D01*
X47279Y-48085D01*
X47367Y-47996D01*
X47432Y-47840D01*
X47432Y-47671D01*
X47368Y-47515D01*
X47307Y-47454D01*
X47401Y-47454D01*
X47677Y-47454D01*
X47731Y-47432D01*
X47785Y-47454D01*
X47859Y-47454D01*
X47922Y-47392D01*
X47922Y-46900D01*
X47914Y-46900D01*
X47914Y-46800D01*
X47922Y-46800D01*
X47922Y-46308D01*
X47859Y-46246D01*
X47790Y-46246D01*
X47790Y-46232D01*
X47879Y-46142D01*
X47944Y-45986D01*
X47944Y-45817D01*
X47880Y-45661D01*
X47810Y-45591D01*
X47948Y-45591D01*
X47948Y-45591D01*
X48063Y-45568D01*
X48063Y-45568D01*
X48160Y-45503D01*
X48617Y-45047D01*
X48617Y-46200D01*
X48640Y-46315D01*
X48705Y-46412D01*
X49109Y-46817D01*
X49109Y-47230D01*
X48503Y-47230D01*
X48411Y-47268D01*
X48360Y-47319D01*
X48360Y-47155D01*
X48360Y-46545D01*
X48360Y-46446D01*
X48322Y-46354D01*
X48251Y-46283D01*
X48159Y-46246D01*
X48084Y-46246D01*
X48022Y-46308D01*
X48022Y-46800D01*
X48297Y-46800D01*
X48360Y-46737D01*
X48360Y-46545D01*
X48360Y-47155D01*
X48360Y-46962D01*
X48297Y-46900D01*
X48022Y-46900D01*
X48022Y-47392D01*
X48084Y-47454D01*
X48159Y-47454D01*
X48251Y-47416D01*
X48322Y-47346D01*
X48360Y-47254D01*
X48360Y-47155D01*
X48360Y-47319D01*
X48341Y-47338D01*
X48303Y-47430D01*
X48303Y-47529D01*
X48303Y-48395D01*
X48341Y-48487D01*
X48411Y-48558D01*
X48503Y-48596D01*
X48602Y-48596D01*
X49232Y-48596D01*
X49324Y-48558D01*
X49394Y-48488D01*
X49431Y-48399D01*
X50624Y-49592D01*
X50624Y-49592D01*
G37*
G54D28*
X50624Y-49592D02*
X50373Y-49592D01*
X50281Y-49630D01*
X50211Y-49700D01*
X50173Y-49792D01*
X50173Y-49892D01*
X50173Y-50758D01*
X50211Y-50850D01*
X50262Y-50901D01*
X49343Y-50901D01*
X49394Y-50850D01*
X49433Y-50758D01*
X49433Y-50659D01*
X49433Y-49793D01*
X49395Y-49701D01*
X49324Y-49630D01*
X49233Y-49592D01*
X49133Y-49592D01*
X48503Y-49592D01*
X48411Y-49630D01*
X48360Y-49681D01*
X48360Y-49517D01*
X48360Y-48907D01*
X48360Y-48808D01*
X48322Y-48716D01*
X48251Y-48646D01*
X48159Y-48608D01*
X48084Y-48608D01*
X48022Y-48670D01*
X48022Y-49162D01*
X48297Y-49162D01*
X48360Y-49100D01*
X48360Y-48907D01*
X48360Y-49517D01*
X48360Y-49325D01*
X48297Y-49262D01*
X48022Y-49262D01*
X48022Y-49754D01*
X48084Y-49816D01*
X48159Y-49816D01*
X48251Y-49778D01*
X48322Y-49708D01*
X48360Y-49616D01*
X48360Y-49517D01*
X48360Y-49681D01*
X48341Y-49700D01*
X48303Y-49792D01*
X48303Y-49892D01*
X48303Y-50758D01*
X48341Y-50850D01*
X48392Y-50901D01*
X46095Y-50901D01*
X46146Y-50850D01*
X46184Y-50758D01*
X46185Y-50659D01*
X46185Y-50231D01*
X46283Y-50330D01*
X46283Y-50330D01*
X46381Y-50395D01*
X46496Y-50418D01*
X47125Y-50418D01*
X47125Y-50418D01*
X47240Y-50395D01*
X47240Y-50395D01*
X47338Y-50330D01*
X47702Y-49966D01*
X47702Y-49966D01*
X47767Y-49868D01*
X47778Y-49814D01*
X47785Y-49816D01*
X47859Y-49816D01*
X47922Y-49754D01*
X47922Y-49262D01*
X47914Y-49262D01*
X47914Y-49162D01*
X47922Y-49162D01*
X47922Y-48670D01*
X47859Y-48608D01*
X47785Y-48608D01*
X47731Y-48630D01*
X47677Y-48608D01*
X47578Y-48608D01*
X47302Y-48608D01*
X47298Y-48610D01*
X47298Y-48179D01*
X47296Y-48169D01*
X47296Y-48166D01*
X47290Y-48140D01*
X47279Y-48085D01*
X47367Y-47996D01*
X47432Y-47840D01*
X47432Y-47671D01*
X47368Y-47515D01*
X47307Y-47454D01*
X47401Y-47454D01*
X47677Y-47454D01*
X47731Y-47432D01*
X47785Y-47454D01*
X47859Y-47454D01*
X47922Y-47392D01*
X47922Y-46900D01*
X47914Y-46900D01*
X47914Y-46800D01*
X47922Y-46800D01*
X47922Y-46308D01*
X47859Y-46246D01*
X47790Y-46246D01*
X47790Y-46232D01*
X47879Y-46142D01*
X47944Y-45986D01*
X47944Y-45817D01*
X47880Y-45661D01*
X47810Y-45591D01*
X47948Y-45591D01*
X47948Y-45591D01*
X48063Y-45568D01*
X48063Y-45568D01*
X48160Y-45503D01*
X48617Y-45047D01*
X48617Y-46200D01*
X48640Y-46315D01*
X48705Y-46412D01*
X49109Y-46817D01*
X49109Y-47230D01*
X48503Y-47230D01*
X48411Y-47268D01*
X48360Y-47319D01*
X48360Y-47155D01*
X48360Y-46545D01*
X48360Y-46446D01*
X48322Y-46354D01*
X48251Y-46283D01*
X48159Y-46246D01*
X48084Y-46246D01*
X48022Y-46308D01*
X48022Y-46800D01*
X48297Y-46800D01*
X48360Y-46737D01*
X48360Y-46545D01*
X48360Y-47155D01*
X48360Y-46962D01*
X48297Y-46900D01*
X48022Y-46900D01*
X48022Y-47392D01*
X48084Y-47454D01*
X48159Y-47454D01*
X48251Y-47416D01*
X48322Y-47346D01*
X48360Y-47254D01*
X48360Y-47155D01*
X48360Y-47319D01*
X48341Y-47338D01*
X48303Y-47430D01*
X48303Y-47529D01*
X48303Y-48395D01*
X48341Y-48487D01*
X48411Y-48558D01*
X48503Y-48596D01*
X48602Y-48596D01*
X49232Y-48596D01*
X49324Y-48558D01*
X49394Y-48488D01*
X49431Y-48399D01*
X50624Y-49592D01*
G54D10*
G36*
X57988Y-38943D02*
X57937Y-38892D01*
X57845Y-38854D01*
X57745Y-38854D01*
X56958Y-38854D01*
X57068Y-38780D01*
X57077Y-38771D01*
X57092Y-38771D01*
X57248Y-38706D01*
X57367Y-38587D01*
X57432Y-38431D01*
X57432Y-38262D01*
X57368Y-38106D01*
X57248Y-37986D01*
X57092Y-37921D01*
X56923Y-37921D01*
X56903Y-37929D01*
X56903Y-37854D01*
X56879Y-37795D01*
X56903Y-37736D01*
X56903Y-37637D01*
X56903Y-37361D01*
X56881Y-37308D01*
X56903Y-37254D01*
X56903Y-36879D01*
X56865Y-36787D01*
X56795Y-36717D01*
X56703Y-36679D01*
X56604Y-36679D01*
X56411Y-36679D01*
X56349Y-36741D01*
X56349Y-37016D01*
X56841Y-37016D01*
X56903Y-36954D01*
X56903Y-36879D01*
X56903Y-37254D01*
X56903Y-37179D01*
X56841Y-37116D01*
X56349Y-37116D01*
X56349Y-37124D01*
X56249Y-37124D01*
X56249Y-37116D01*
X56249Y-37016D01*
X56249Y-36741D01*
X56186Y-36679D01*
X55994Y-36679D01*
X55894Y-36679D01*
X55803Y-36717D01*
X55732Y-36787D01*
X55694Y-36879D01*
X55694Y-36954D01*
X55757Y-37016D01*
X56249Y-37016D01*
X56249Y-37116D01*
X55757Y-37116D01*
X55694Y-37179D01*
X55694Y-37249D01*
X54521Y-37249D01*
X54521Y-35206D01*
X54521Y-33612D01*
X54521Y-33513D01*
X54483Y-33421D01*
X54413Y-33350D01*
X54321Y-33312D01*
X53281Y-33312D01*
X53219Y-33375D01*
X53219Y-34359D01*
X54459Y-34359D01*
X54521Y-34296D01*
X54521Y-33612D01*
X54521Y-35206D01*
X54521Y-34521D01*
X54459Y-34459D01*
X53219Y-34459D01*
X53219Y-35443D01*
X53281Y-35505D01*
X54321Y-35505D01*
X54413Y-35467D01*
X54483Y-35397D01*
X54521Y-35305D01*
X54521Y-35206D01*
X54521Y-37249D01*
X53435Y-37249D01*
X53320Y-37272D01*
X53222Y-37337D01*
X53119Y-37440D01*
X53119Y-35443D01*
X53119Y-34459D01*
X53119Y-34359D01*
X53119Y-33375D01*
X53056Y-33312D01*
X52017Y-33312D01*
X51925Y-33350D01*
X51855Y-33421D01*
X51816Y-33513D01*
X51816Y-33612D01*
X51816Y-34296D01*
X51879Y-34359D01*
X53119Y-34359D01*
X53119Y-34459D01*
X51879Y-34459D01*
X51816Y-34521D01*
X51816Y-35206D01*
X51816Y-35305D01*
X51855Y-35397D01*
X51925Y-35467D01*
X52017Y-35505D01*
X53056Y-35505D01*
X53119Y-35443D01*
X53119Y-37440D01*
X52618Y-37941D01*
X52604Y-37909D01*
X52544Y-37848D01*
X52544Y-36338D01*
X52544Y-36338D01*
X52521Y-36223D01*
X52456Y-36126D01*
X52456Y-36126D01*
X51126Y-34796D01*
X51126Y-33814D01*
X51164Y-33852D01*
X51191Y-33852D01*
X51283Y-33814D01*
X51353Y-33744D01*
X51391Y-33652D01*
X51391Y-33552D01*
X51391Y-33439D01*
X51329Y-33376D01*
X51135Y-33376D01*
X51135Y-33276D01*
X51329Y-33276D01*
X51391Y-33214D01*
X51391Y-33100D01*
X51391Y-33001D01*
X51353Y-32909D01*
X51283Y-32839D01*
X51258Y-32828D01*
X51407Y-32828D01*
X51466Y-32804D01*
X51524Y-32828D01*
X51624Y-32828D01*
X52529Y-32828D01*
X52621Y-32790D01*
X52692Y-32720D01*
X52730Y-32628D01*
X52730Y-32529D01*
X52730Y-31781D01*
X52728Y-31775D01*
X57988Y-31775D01*
X57988Y-33422D01*
X57987Y-33421D01*
X57917Y-33351D01*
X57825Y-33313D01*
X57726Y-33312D01*
X55521Y-33312D01*
X55429Y-33350D01*
X55359Y-33421D01*
X55320Y-33513D01*
X55320Y-33612D01*
X55320Y-35305D01*
X55358Y-35397D01*
X55429Y-35467D01*
X55520Y-35505D01*
X55620Y-35505D01*
X56189Y-35505D01*
X56189Y-35556D01*
X56253Y-35712D01*
X56373Y-35832D01*
X56529Y-35897D01*
X56679Y-35897D01*
X56679Y-35905D01*
X56679Y-36535D01*
X56717Y-36627D01*
X56787Y-36698D01*
X56879Y-36736D01*
X56978Y-36736D01*
X57844Y-36736D01*
X57936Y-36698D01*
X57988Y-36646D01*
X57988Y-38943D01*
X57988Y-38943D01*
G37*
G54D28*
X57988Y-38943D02*
X57937Y-38892D01*
X57845Y-38854D01*
X57745Y-38854D01*
X56958Y-38854D01*
X57068Y-38780D01*
X57077Y-38771D01*
X57092Y-38771D01*
X57248Y-38706D01*
X57367Y-38587D01*
X57432Y-38431D01*
X57432Y-38262D01*
X57368Y-38106D01*
X57248Y-37986D01*
X57092Y-37921D01*
X56923Y-37921D01*
X56903Y-37929D01*
X56903Y-37854D01*
X56879Y-37795D01*
X56903Y-37736D01*
X56903Y-37637D01*
X56903Y-37361D01*
X56881Y-37308D01*
X56903Y-37254D01*
X56903Y-36879D01*
X56865Y-36787D01*
X56795Y-36717D01*
X56703Y-36679D01*
X56604Y-36679D01*
X56411Y-36679D01*
X56349Y-36741D01*
X56349Y-37016D01*
X56841Y-37016D01*
X56903Y-36954D01*
X56903Y-36879D01*
X56903Y-37254D01*
X56903Y-37179D01*
X56841Y-37116D01*
X56349Y-37116D01*
X56349Y-37124D01*
X56249Y-37124D01*
X56249Y-37116D01*
X56249Y-37016D01*
X56249Y-36741D01*
X56186Y-36679D01*
X55994Y-36679D01*
X55894Y-36679D01*
X55803Y-36717D01*
X55732Y-36787D01*
X55694Y-36879D01*
X55694Y-36954D01*
X55757Y-37016D01*
X56249Y-37016D01*
X56249Y-37116D01*
X55757Y-37116D01*
X55694Y-37179D01*
X55694Y-37249D01*
X54521Y-37249D01*
X54521Y-35206D01*
X54521Y-33612D01*
X54521Y-33513D01*
X54483Y-33421D01*
X54413Y-33350D01*
X54321Y-33312D01*
X53281Y-33312D01*
X53219Y-33375D01*
X53219Y-34359D01*
X54459Y-34359D01*
X54521Y-34296D01*
X54521Y-33612D01*
X54521Y-35206D01*
X54521Y-34521D01*
X54459Y-34459D01*
X53219Y-34459D01*
X53219Y-35443D01*
X53281Y-35505D01*
X54321Y-35505D01*
X54413Y-35467D01*
X54483Y-35397D01*
X54521Y-35305D01*
X54521Y-35206D01*
X54521Y-37249D01*
X53435Y-37249D01*
X53320Y-37272D01*
X53222Y-37337D01*
X53119Y-37440D01*
X53119Y-35443D01*
X53119Y-34459D01*
X53119Y-34359D01*
X53119Y-33375D01*
X53056Y-33312D01*
X52017Y-33312D01*
X51925Y-33350D01*
X51855Y-33421D01*
X51816Y-33513D01*
X51816Y-33612D01*
X51816Y-34296D01*
X51879Y-34359D01*
X53119Y-34359D01*
X53119Y-34459D01*
X51879Y-34459D01*
X51816Y-34521D01*
X51816Y-35206D01*
X51816Y-35305D01*
X51855Y-35397D01*
X51925Y-35467D01*
X52017Y-35505D01*
X53056Y-35505D01*
X53119Y-35443D01*
X53119Y-37440D01*
X52618Y-37941D01*
X52604Y-37909D01*
X52544Y-37848D01*
X52544Y-36338D01*
X52544Y-36338D01*
X52521Y-36223D01*
X52456Y-36126D01*
X52456Y-36126D01*
X51126Y-34796D01*
X51126Y-33814D01*
X51164Y-33852D01*
X51191Y-33852D01*
X51283Y-33814D01*
X51353Y-33744D01*
X51391Y-33652D01*
X51391Y-33552D01*
X51391Y-33439D01*
X51329Y-33376D01*
X51135Y-33376D01*
X51135Y-33276D01*
X51329Y-33276D01*
X51391Y-33214D01*
X51391Y-33100D01*
X51391Y-33001D01*
X51353Y-32909D01*
X51283Y-32839D01*
X51258Y-32828D01*
X51407Y-32828D01*
X51466Y-32804D01*
X51524Y-32828D01*
X51624Y-32828D01*
X52529Y-32828D01*
X52621Y-32790D01*
X52692Y-32720D01*
X52730Y-32628D01*
X52730Y-32529D01*
X52730Y-31781D01*
X52728Y-31775D01*
X57988Y-31775D01*
X57988Y-33422D01*
X57987Y-33421D01*
X57917Y-33351D01*
X57825Y-33313D01*
X57726Y-33312D01*
X55521Y-33312D01*
X55429Y-33350D01*
X55359Y-33421D01*
X55320Y-33513D01*
X55320Y-33612D01*
X55320Y-35305D01*
X55358Y-35397D01*
X55429Y-35467D01*
X55520Y-35505D01*
X55620Y-35505D01*
X56189Y-35505D01*
X56189Y-35556D01*
X56253Y-35712D01*
X56373Y-35832D01*
X56529Y-35897D01*
X56679Y-35897D01*
X56679Y-35905D01*
X56679Y-36535D01*
X56717Y-36627D01*
X56787Y-36698D01*
X56879Y-36736D01*
X56978Y-36736D01*
X57844Y-36736D01*
X57936Y-36698D01*
X57988Y-36646D01*
X57988Y-38943D01*
G54D10*
G36*
X57988Y-50901D02*
X54461Y-50901D01*
X54512Y-50850D01*
X54551Y-50758D01*
X54551Y-50659D01*
X54551Y-49793D01*
X54513Y-49701D01*
X54442Y-49630D01*
X54351Y-49592D01*
X54251Y-49592D01*
X53621Y-49592D01*
X53529Y-49630D01*
X53478Y-49681D01*
X53478Y-49517D01*
X53478Y-48907D01*
X53478Y-48808D01*
X53440Y-48716D01*
X53369Y-48646D01*
X53277Y-48608D01*
X53203Y-48608D01*
X53140Y-48670D01*
X53140Y-49162D01*
X53415Y-49162D01*
X53478Y-49100D01*
X53478Y-48907D01*
X53478Y-49517D01*
X53478Y-49325D01*
X53415Y-49262D01*
X53140Y-49262D01*
X53140Y-49754D01*
X53203Y-49816D01*
X53277Y-49816D01*
X53369Y-49778D01*
X53440Y-49708D01*
X53478Y-49616D01*
X53478Y-49517D01*
X53478Y-49681D01*
X53459Y-49700D01*
X53421Y-49792D01*
X53421Y-49892D01*
X53421Y-50758D01*
X53459Y-50850D01*
X53510Y-50901D01*
X51213Y-50901D01*
X51264Y-50850D01*
X51303Y-50758D01*
X51303Y-50659D01*
X51303Y-50270D01*
X51402Y-50369D01*
X51402Y-50369D01*
X51499Y-50434D01*
X51614Y-50457D01*
X51614Y-50457D01*
X52047Y-50457D01*
X52047Y-50457D01*
X52162Y-50434D01*
X52162Y-50434D01*
X52259Y-50369D01*
X52820Y-49808D01*
X52820Y-49808D01*
X52822Y-49805D01*
X52822Y-49805D01*
X52849Y-49794D01*
X52903Y-49816D01*
X52978Y-49816D01*
X53040Y-49754D01*
X53040Y-49262D01*
X53032Y-49262D01*
X53032Y-49162D01*
X53040Y-49162D01*
X53040Y-48670D01*
X52978Y-48608D01*
X52903Y-48608D01*
X52849Y-48630D01*
X52796Y-48608D01*
X52696Y-48608D01*
X52603Y-48608D01*
X52755Y-48456D01*
X52840Y-48456D01*
X52996Y-48392D01*
X53115Y-48272D01*
X53180Y-48116D01*
X53180Y-47947D01*
X53116Y-47791D01*
X52996Y-47671D01*
X52840Y-47606D01*
X52671Y-47606D01*
X52515Y-47670D01*
X52395Y-47790D01*
X52330Y-47946D01*
X52330Y-48032D01*
X51974Y-48389D01*
X51974Y-47454D01*
X52027Y-47454D01*
X52303Y-47454D01*
X52362Y-47430D01*
X52420Y-47454D01*
X52519Y-47454D01*
X52795Y-47454D01*
X52849Y-47432D01*
X52903Y-47454D01*
X52978Y-47454D01*
X53040Y-47392D01*
X53040Y-46900D01*
X53032Y-46900D01*
X53032Y-46800D01*
X53040Y-46800D01*
X53040Y-46308D01*
X52978Y-46246D01*
X52908Y-46246D01*
X52908Y-43001D01*
X52907Y-42996D01*
X52907Y-42993D01*
X52907Y-42969D01*
X52942Y-42933D01*
X53322Y-43313D01*
X53322Y-46264D01*
X53277Y-46246D01*
X53203Y-46246D01*
X53140Y-46308D01*
X53140Y-46800D01*
X53148Y-46800D01*
X53148Y-46900D01*
X53140Y-46900D01*
X53140Y-47392D01*
X53203Y-47454D01*
X53277Y-47454D01*
X53356Y-47422D01*
X53380Y-47446D01*
X53421Y-47463D01*
X53421Y-47529D01*
X53421Y-48395D01*
X53459Y-48487D01*
X53529Y-48558D01*
X53621Y-48596D01*
X53720Y-48596D01*
X54350Y-48596D01*
X54442Y-48558D01*
X54512Y-48488D01*
X54551Y-48396D01*
X54551Y-48296D01*
X54551Y-47430D01*
X54513Y-47338D01*
X54442Y-47268D01*
X54351Y-47230D01*
X54251Y-47230D01*
X54022Y-47230D01*
X54046Y-47171D01*
X54047Y-47002D01*
X53982Y-46846D01*
X53922Y-46785D01*
X53922Y-43545D01*
X55211Y-44777D01*
X55211Y-44847D01*
X55124Y-44811D01*
X54955Y-44811D01*
X54798Y-44875D01*
X54679Y-44995D01*
X54614Y-45151D01*
X54614Y-45320D01*
X54678Y-45476D01*
X54689Y-45487D01*
X54689Y-47401D01*
X54716Y-47535D01*
X54791Y-47649D01*
X55372Y-48229D01*
X55486Y-48305D01*
X55486Y-48305D01*
X55620Y-48332D01*
X55804Y-48332D01*
X55894Y-48370D01*
X55994Y-48370D01*
X56703Y-48370D01*
X56794Y-48332D01*
X56865Y-48261D01*
X56903Y-48170D01*
X56903Y-48070D01*
X56903Y-47794D01*
X56879Y-47736D01*
X56903Y-47677D01*
X56903Y-47578D01*
X56903Y-47302D01*
X56879Y-47244D01*
X56903Y-47185D01*
X56903Y-47086D01*
X56903Y-46810D01*
X56881Y-46756D01*
X56903Y-46703D01*
X56903Y-46328D01*
X56865Y-46236D01*
X56795Y-46166D01*
X56703Y-46127D01*
X56604Y-46127D01*
X56411Y-46127D01*
X56349Y-46190D01*
X56349Y-46465D01*
X56841Y-46465D01*
X56903Y-46403D01*
X56903Y-46328D01*
X56903Y-46703D01*
X56903Y-46628D01*
X56841Y-46565D01*
X56349Y-46565D01*
X56349Y-46573D01*
X56249Y-46573D01*
X56249Y-46565D01*
X56241Y-46565D01*
X56241Y-46465D01*
X56249Y-46465D01*
X56249Y-46190D01*
X56186Y-46127D01*
X56048Y-46127D01*
X56048Y-45661D01*
X56147Y-45661D01*
X56303Y-45596D01*
X56423Y-45477D01*
X56487Y-45321D01*
X56487Y-45306D01*
X56546Y-45247D01*
X56622Y-45133D01*
X56622Y-45133D01*
X56649Y-45000D01*
X56649Y-43645D01*
X56703Y-43645D01*
X56794Y-43607D01*
X56865Y-43537D01*
X56903Y-43445D01*
X56903Y-43346D01*
X56903Y-43070D01*
X56879Y-43011D01*
X56903Y-42953D01*
X56903Y-42854D01*
X56903Y-42578D01*
X56879Y-42519D01*
X56903Y-42461D01*
X56903Y-42361D01*
X56903Y-42086D01*
X56881Y-42032D01*
X56903Y-41978D01*
X56903Y-41604D01*
X56865Y-41512D01*
X56795Y-41441D01*
X56703Y-41403D01*
X56604Y-41403D01*
X56411Y-41403D01*
X56349Y-41466D01*
X56349Y-41741D01*
X56841Y-41741D01*
X56903Y-41678D01*
X56903Y-41604D01*
X56903Y-41978D01*
X56903Y-41903D01*
X56841Y-41841D01*
X56349Y-41841D01*
X56349Y-41849D01*
X56249Y-41849D01*
X56249Y-41841D01*
X56241Y-41841D01*
X56241Y-41741D01*
X56249Y-41741D01*
X56249Y-41466D01*
X56186Y-41403D01*
X55994Y-41403D01*
X55894Y-41403D01*
X55803Y-41441D01*
X55753Y-41491D01*
X55743Y-41481D01*
X55743Y-40412D01*
X55870Y-40360D01*
X55990Y-40241D01*
X56037Y-40126D01*
X56546Y-39617D01*
X56546Y-39617D01*
X56546Y-39617D01*
X56622Y-39504D01*
X56649Y-39370D01*
X56649Y-38921D01*
X56703Y-38921D01*
X56794Y-38883D01*
X56809Y-38883D01*
X56787Y-38892D01*
X56717Y-38962D01*
X56679Y-39054D01*
X56679Y-39153D01*
X56679Y-39783D01*
X56717Y-39875D01*
X56787Y-39946D01*
X56879Y-39984D01*
X56978Y-39984D01*
X57844Y-39984D01*
X57936Y-39946D01*
X57988Y-39894D01*
X57988Y-40420D01*
X57937Y-40368D01*
X57845Y-40330D01*
X57745Y-40330D01*
X56879Y-40330D01*
X56787Y-40368D01*
X56717Y-40438D01*
X56679Y-40530D01*
X56679Y-40630D01*
X56679Y-41260D01*
X56717Y-41352D01*
X56787Y-41422D01*
X56879Y-41460D01*
X56978Y-41460D01*
X57844Y-41460D01*
X57936Y-41422D01*
X57988Y-41371D01*
X57988Y-43668D01*
X57937Y-43616D01*
X57845Y-43578D01*
X57745Y-43578D01*
X56879Y-43578D01*
X56787Y-43616D01*
X56717Y-43686D01*
X56679Y-43778D01*
X56679Y-43878D01*
X56679Y-44508D01*
X56717Y-44600D01*
X56787Y-44670D01*
X56879Y-44708D01*
X56978Y-44708D01*
X57844Y-44708D01*
X57936Y-44670D01*
X57988Y-44619D01*
X57988Y-45144D01*
X57937Y-45093D01*
X57845Y-45055D01*
X57745Y-45055D01*
X56879Y-45055D01*
X56787Y-45093D01*
X56717Y-45163D01*
X56679Y-45255D01*
X56679Y-45354D01*
X56679Y-45984D01*
X56717Y-46076D01*
X56787Y-46146D01*
X56879Y-46184D01*
X56978Y-46185D01*
X57844Y-46185D01*
X57936Y-46147D01*
X57988Y-46095D01*
X57988Y-48392D01*
X57937Y-48341D01*
X57845Y-48303D01*
X57745Y-48303D01*
X56879Y-48303D01*
X56787Y-48341D01*
X56717Y-48411D01*
X56679Y-48503D01*
X56679Y-48602D01*
X56679Y-49232D01*
X56717Y-49324D01*
X56787Y-49394D01*
X56879Y-49433D01*
X56978Y-49433D01*
X57844Y-49433D01*
X57936Y-49395D01*
X57988Y-49343D01*
X57988Y-50901D01*
X57988Y-50901D01*
G37*
G54D28*
X57988Y-50901D02*
X54461Y-50901D01*
X54512Y-50850D01*
X54551Y-50758D01*
X54551Y-50659D01*
X54551Y-49793D01*
X54513Y-49701D01*
X54442Y-49630D01*
X54351Y-49592D01*
X54251Y-49592D01*
X53621Y-49592D01*
X53529Y-49630D01*
X53478Y-49681D01*
X53478Y-49517D01*
X53478Y-48907D01*
X53478Y-48808D01*
X53440Y-48716D01*
X53369Y-48646D01*
X53277Y-48608D01*
X53203Y-48608D01*
X53140Y-48670D01*
X53140Y-49162D01*
X53415Y-49162D01*
X53478Y-49100D01*
X53478Y-48907D01*
X53478Y-49517D01*
X53478Y-49325D01*
X53415Y-49262D01*
X53140Y-49262D01*
X53140Y-49754D01*
X53203Y-49816D01*
X53277Y-49816D01*
X53369Y-49778D01*
X53440Y-49708D01*
X53478Y-49616D01*
X53478Y-49517D01*
X53478Y-49681D01*
X53459Y-49700D01*
X53421Y-49792D01*
X53421Y-49892D01*
X53421Y-50758D01*
X53459Y-50850D01*
X53510Y-50901D01*
X51213Y-50901D01*
X51264Y-50850D01*
X51303Y-50758D01*
X51303Y-50659D01*
X51303Y-50270D01*
X51402Y-50369D01*
X51402Y-50369D01*
X51499Y-50434D01*
X51614Y-50457D01*
X51614Y-50457D01*
X52047Y-50457D01*
X52047Y-50457D01*
X52162Y-50434D01*
X52162Y-50434D01*
X52259Y-50369D01*
X52820Y-49808D01*
X52820Y-49808D01*
X52822Y-49805D01*
X52822Y-49805D01*
X52849Y-49794D01*
X52903Y-49816D01*
X52978Y-49816D01*
X53040Y-49754D01*
X53040Y-49262D01*
X53032Y-49262D01*
X53032Y-49162D01*
X53040Y-49162D01*
X53040Y-48670D01*
X52978Y-48608D01*
X52903Y-48608D01*
X52849Y-48630D01*
X52796Y-48608D01*
X52696Y-48608D01*
X52603Y-48608D01*
X52755Y-48456D01*
X52840Y-48456D01*
X52996Y-48392D01*
X53115Y-48272D01*
X53180Y-48116D01*
X53180Y-47947D01*
X53116Y-47791D01*
X52996Y-47671D01*
X52840Y-47606D01*
X52671Y-47606D01*
X52515Y-47670D01*
X52395Y-47790D01*
X52330Y-47946D01*
X52330Y-48032D01*
X51974Y-48389D01*
X51974Y-47454D01*
X52027Y-47454D01*
X52303Y-47454D01*
X52362Y-47430D01*
X52420Y-47454D01*
X52519Y-47454D01*
X52795Y-47454D01*
X52849Y-47432D01*
X52903Y-47454D01*
X52978Y-47454D01*
X53040Y-47392D01*
X53040Y-46900D01*
X53032Y-46900D01*
X53032Y-46800D01*
X53040Y-46800D01*
X53040Y-46308D01*
X52978Y-46246D01*
X52908Y-46246D01*
X52908Y-43001D01*
X52907Y-42996D01*
X52907Y-42993D01*
X52907Y-42969D01*
X52942Y-42933D01*
X53322Y-43313D01*
X53322Y-46264D01*
X53277Y-46246D01*
X53203Y-46246D01*
X53140Y-46308D01*
X53140Y-46800D01*
X53148Y-46800D01*
X53148Y-46900D01*
X53140Y-46900D01*
X53140Y-47392D01*
X53203Y-47454D01*
X53277Y-47454D01*
X53356Y-47422D01*
X53380Y-47446D01*
X53421Y-47463D01*
X53421Y-47529D01*
X53421Y-48395D01*
X53459Y-48487D01*
X53529Y-48558D01*
X53621Y-48596D01*
X53720Y-48596D01*
X54350Y-48596D01*
X54442Y-48558D01*
X54512Y-48488D01*
X54551Y-48396D01*
X54551Y-48296D01*
X54551Y-47430D01*
X54513Y-47338D01*
X54442Y-47268D01*
X54351Y-47230D01*
X54251Y-47230D01*
X54022Y-47230D01*
X54046Y-47171D01*
X54047Y-47002D01*
X53982Y-46846D01*
X53922Y-46785D01*
X53922Y-43545D01*
X55211Y-44777D01*
X55211Y-44847D01*
X55124Y-44811D01*
X54955Y-44811D01*
X54798Y-44875D01*
X54679Y-44995D01*
X54614Y-45151D01*
X54614Y-45320D01*
X54678Y-45476D01*
X54689Y-45487D01*
X54689Y-47401D01*
X54716Y-47535D01*
X54791Y-47649D01*
X55372Y-48229D01*
X55486Y-48305D01*
X55486Y-48305D01*
X55620Y-48332D01*
X55804Y-48332D01*
X55894Y-48370D01*
X55994Y-48370D01*
X56703Y-48370D01*
X56794Y-48332D01*
X56865Y-48261D01*
X56903Y-48170D01*
X56903Y-48070D01*
X56903Y-47794D01*
X56879Y-47736D01*
X56903Y-47677D01*
X56903Y-47578D01*
X56903Y-47302D01*
X56879Y-47244D01*
X56903Y-47185D01*
X56903Y-47086D01*
X56903Y-46810D01*
X56881Y-46756D01*
X56903Y-46703D01*
X56903Y-46328D01*
X56865Y-46236D01*
X56795Y-46166D01*
X56703Y-46127D01*
X56604Y-46127D01*
X56411Y-46127D01*
X56349Y-46190D01*
X56349Y-46465D01*
X56841Y-46465D01*
X56903Y-46403D01*
X56903Y-46328D01*
X56903Y-46703D01*
X56903Y-46628D01*
X56841Y-46565D01*
X56349Y-46565D01*
X56349Y-46573D01*
X56249Y-46573D01*
X56249Y-46565D01*
X56241Y-46565D01*
X56241Y-46465D01*
X56249Y-46465D01*
X56249Y-46190D01*
X56186Y-46127D01*
X56048Y-46127D01*
X56048Y-45661D01*
X56147Y-45661D01*
X56303Y-45596D01*
X56423Y-45477D01*
X56487Y-45321D01*
X56487Y-45306D01*
X56546Y-45247D01*
X56622Y-45133D01*
X56622Y-45133D01*
X56649Y-45000D01*
X56649Y-43645D01*
X56703Y-43645D01*
X56794Y-43607D01*
X56865Y-43537D01*
X56903Y-43445D01*
X56903Y-43346D01*
X56903Y-43070D01*
X56879Y-43011D01*
X56903Y-42953D01*
X56903Y-42854D01*
X56903Y-42578D01*
X56879Y-42519D01*
X56903Y-42461D01*
X56903Y-42361D01*
X56903Y-42086D01*
X56881Y-42032D01*
X56903Y-41978D01*
X56903Y-41604D01*
X56865Y-41512D01*
X56795Y-41441D01*
X56703Y-41403D01*
X56604Y-41403D01*
X56411Y-41403D01*
X56349Y-41466D01*
X56349Y-41741D01*
X56841Y-41741D01*
X56903Y-41678D01*
X56903Y-41604D01*
X56903Y-41978D01*
X56903Y-41903D01*
X56841Y-41841D01*
X56349Y-41841D01*
X56349Y-41849D01*
X56249Y-41849D01*
X56249Y-41841D01*
X56241Y-41841D01*
X56241Y-41741D01*
X56249Y-41741D01*
X56249Y-41466D01*
X56186Y-41403D01*
X55994Y-41403D01*
X55894Y-41403D01*
X55803Y-41441D01*
X55753Y-41491D01*
X55743Y-41481D01*
X55743Y-40412D01*
X55870Y-40360D01*
X55990Y-40241D01*
X56037Y-40126D01*
X56546Y-39617D01*
X56546Y-39617D01*
X56546Y-39617D01*
X56622Y-39504D01*
X56649Y-39370D01*
X56649Y-38921D01*
X56703Y-38921D01*
X56794Y-38883D01*
X56809Y-38883D01*
X56787Y-38892D01*
X56717Y-38962D01*
X56679Y-39054D01*
X56679Y-39153D01*
X56679Y-39783D01*
X56717Y-39875D01*
X56787Y-39946D01*
X56879Y-39984D01*
X56978Y-39984D01*
X57844Y-39984D01*
X57936Y-39946D01*
X57988Y-39894D01*
X57988Y-40420D01*
X57937Y-40368D01*
X57845Y-40330D01*
X57745Y-40330D01*
X56879Y-40330D01*
X56787Y-40368D01*
X56717Y-40438D01*
X56679Y-40530D01*
X56679Y-40630D01*
X56679Y-41260D01*
X56717Y-41352D01*
X56787Y-41422D01*
X56879Y-41460D01*
X56978Y-41460D01*
X57844Y-41460D01*
X57936Y-41422D01*
X57988Y-41371D01*
X57988Y-43668D01*
X57937Y-43616D01*
X57845Y-43578D01*
X57745Y-43578D01*
X56879Y-43578D01*
X56787Y-43616D01*
X56717Y-43686D01*
X56679Y-43778D01*
X56679Y-43878D01*
X56679Y-44508D01*
X56717Y-44600D01*
X56787Y-44670D01*
X56879Y-44708D01*
X56978Y-44708D01*
X57844Y-44708D01*
X57936Y-44670D01*
X57988Y-44619D01*
X57988Y-45144D01*
X57937Y-45093D01*
X57845Y-45055D01*
X57745Y-45055D01*
X56879Y-45055D01*
X56787Y-45093D01*
X56717Y-45163D01*
X56679Y-45255D01*
X56679Y-45354D01*
X56679Y-45984D01*
X56717Y-46076D01*
X56787Y-46146D01*
X56879Y-46184D01*
X56978Y-46185D01*
X57844Y-46185D01*
X57936Y-46147D01*
X57988Y-46095D01*
X57988Y-48392D01*
X57937Y-48341D01*
X57845Y-48303D01*
X57745Y-48303D01*
X56879Y-48303D01*
X56787Y-48341D01*
X56717Y-48411D01*
X56679Y-48503D01*
X56679Y-48602D01*
X56679Y-49232D01*
X56717Y-49324D01*
X56787Y-49394D01*
X56879Y-49433D01*
X56978Y-49433D01*
X57844Y-49433D01*
X57936Y-49395D01*
X57988Y-49343D01*
X57988Y-50901D01*
M02*
