M48
;DRILL file {Pcbnew (25-Oct-2014 BZR 4029)-stable} date Thu 30 Jul 2015 11:12:41 AM EDT
;FORMAT={-:-/ absolute / inch / decimal}
FMAT,2
INCH,TZ
T1C0.025
%
G90
G05
M72
T1
X4.2362Y-3.7362
X4.3307Y-3.9173
X4.4094Y-4.5866
X4.4331Y-3.748
X4.4488Y-3.8858
X4.4528Y-4.1024
X4.4606Y-4.2913
X4.4882Y-3.9961
X4.5394Y-4.1614
X4.5394Y-4.2205
X4.5669Y-4.0945
X4.5827Y-3.9724
X4.6063Y-4.6732
X4.6102Y-4.2008
X4.6299Y-3.9803
X4.6496Y-4.8307
X4.6654Y-4.5866
X4.6772Y-3.4291
X4.6811Y-3.4764
X4.7008Y-4.7756
X4.7047Y-3.9567
X4.7402Y-4.5866
X4.7598Y-3.8858
X4.7598Y-3.9331
X4.7717Y-4.1614
X4.7913Y-3.6339
X4.7913Y-4.3228
X4.7913Y-4.563
X4.7992Y-4.4646
X4.8425Y-4.5354
X4.8465Y-3.8858
X4.8622Y-4.4606
X4.8661Y-3.7953
X4.8819Y-3.4764
X4.8819Y-4.1378
X4.9173Y-3.2992
X4.9173Y-3.3819
X4.9173Y-3.9685
X4.9173Y-4.0472
X4.9213Y-4.5394
X4.937Y-3.7441
X4.9409Y-4.185
X4.9449Y-4.5945
X4.9528Y-4.0787
X4.9606Y-4.0276
X4.9646Y-3.2441
X4.9646Y-3.4606
X4.9646Y-4.8937
X4.9685Y-3.689
X4.9685Y-4.4843
X5.0157Y-3.5709
X5.0157Y-4.4291
X5.0236Y-3.6378
X5.0551Y-3.7087
X5.0591Y-3.6654
X5.0709Y-4.5551
X5.0748Y-3.4331
X5.0748Y-3.5079
X5.0787Y-3.248
X5.0984Y-4.4803
X5.1024Y-4.0906
X5.1024Y-4.1535
X5.1181Y-4.4291
X5.1378Y-3.748
X5.1496Y-4.2402
X5.189Y-4.2677
X5.2244Y-4.311
X5.252Y-4.1024
X5.2598Y-4.2677
X5.2756Y-4.8031
X5.2874Y-3.5197
X5.2913Y-4.0709
X5.2953Y-3.4488
X5.3031Y-3.8937
X5.3189Y-4.1929
X5.3622Y-4.0945
X5.3622Y-4.7087
X5.3819Y-4.8858
X5.3898Y-3.8937
X5.3976Y-3.4488
X5.4055Y-4.1575
X5.4213Y-3.9961
X5.4409Y-3.5591
X5.4724Y-4.1772
X5.4882Y-3.9173
X5.4921Y-3.8465
X5.5039Y-4.5236
X5.5315Y-4.3268
X5.5394Y-4.1732
X5.5827Y-4.
X5.5906Y-3.8937
X5.6063Y-4.5236
T0
M30
