G04 (created by PCBNEW (25-Oct-2014 BZR 4029)-stable) date Thu 30 Jul 2015 11:12:18 AM EDT*
%MOIN*%
G04 Gerber Fmt 3.4, Leading zero omitted, Abs format*
%FSLAX34Y34*%
G01*
G70*
G90*
G04 APERTURE LIST*
%ADD10C,0.00393701*%
%ADD11C,0.035*%
%ADD12C,0.01*%
G04 APERTURE END LIST*
G54D10*
G54D11*
X51889Y-42677D03*
X54881Y-39173D03*
X47047Y-39566D03*
X46102Y-42007D03*
X47913Y-36338D03*
X49645Y-34606D03*
X47598Y-38858D03*
X48464Y-38858D03*
X52874Y-35196D03*
X54409Y-35590D03*
X50748Y-34330D03*
X50748Y-35078D03*
X50787Y-32480D03*
X49645Y-32440D03*
X49645Y-48937D03*
X53818Y-48858D03*
X48661Y-37952D03*
X44881Y-39960D03*
X52244Y-43110D03*
X54724Y-41771D03*
X50708Y-45551D03*
X50984Y-44803D03*
X55314Y-43267D03*
X55393Y-41732D03*
X55826Y-40000D03*
X54212Y-39960D03*
X42362Y-37362D03*
X43307Y-39173D03*
X45393Y-42204D03*
X44527Y-41023D03*
X55905Y-38937D03*
X54921Y-38464D03*
X53976Y-34488D03*
X52952Y-34488D03*
X56062Y-45236D03*
X55039Y-45236D03*
X44094Y-45866D03*
X46062Y-46732D03*
X47401Y-45866D03*
X46653Y-45866D03*
X47007Y-47755D03*
X46496Y-48307D03*
X47913Y-45629D03*
X49448Y-45944D03*
X47913Y-43228D03*
X49606Y-40275D03*
X46811Y-34763D03*
X48818Y-34763D03*
X49685Y-36889D03*
X50551Y-37086D03*
X46771Y-34291D03*
X50590Y-36653D03*
X49173Y-40472D03*
X48818Y-41377D03*
X47598Y-39330D03*
X47716Y-41614D03*
X44330Y-37480D03*
X44488Y-38858D03*
X47992Y-44645D03*
X49685Y-44842D03*
X50157Y-44291D03*
X51181Y-44291D03*
X48425Y-45354D03*
X49212Y-45393D03*
X50157Y-35708D03*
X50236Y-36377D03*
X54055Y-41574D03*
X53622Y-40944D03*
X53188Y-41929D03*
X52913Y-40708D03*
X52598Y-42677D03*
X52519Y-41023D03*
X52755Y-48031D03*
X53622Y-47086D03*
X51496Y-42401D03*
X49173Y-39685D03*
X48622Y-44606D03*
X49409Y-41850D03*
X45393Y-41614D03*
X45826Y-39724D03*
X44606Y-42913D03*
X49527Y-40787D03*
X49173Y-32992D03*
X49173Y-33818D03*
X53897Y-38937D03*
X53031Y-38937D03*
X51023Y-40905D03*
X51023Y-41535D03*
X51377Y-37480D03*
X49370Y-37440D03*
X45669Y-40944D03*
X46299Y-39803D03*
G54D12*
X51889Y-39881D02*
X51889Y-42677D01*
X52362Y-39409D02*
X51889Y-39881D01*
X54645Y-39409D02*
X52362Y-39409D01*
X54881Y-39173D02*
X54645Y-39409D01*
X46259Y-40354D02*
X47047Y-39566D01*
X46259Y-41850D02*
X46259Y-40354D01*
X46102Y-42007D02*
X46259Y-41850D01*
X46496Y-36338D02*
X47913Y-36338D01*
X46299Y-36141D02*
X46496Y-36338D01*
X46299Y-34055D02*
X46299Y-36141D01*
X46377Y-33976D02*
X46299Y-34055D01*
X46929Y-33976D02*
X46377Y-33976D01*
X47047Y-34094D02*
X46929Y-33976D01*
X49133Y-34094D02*
X47047Y-34094D01*
X49645Y-34606D02*
X49133Y-34094D01*
X47598Y-38858D02*
X48464Y-38858D01*
X54015Y-35196D02*
X52874Y-35196D01*
X54409Y-35590D02*
X54015Y-35196D01*
X50748Y-34330D02*
X50748Y-35078D01*
X49685Y-32480D02*
X50787Y-32480D01*
X49645Y-32440D02*
X49685Y-32480D01*
X53740Y-48937D02*
X49645Y-48937D01*
X53818Y-48858D02*
X53740Y-48937D01*
X48228Y-38385D02*
X48661Y-37952D01*
X46456Y-38385D02*
X48228Y-38385D01*
X44881Y-39960D02*
X46456Y-38385D01*
X53385Y-43110D02*
X52244Y-43110D01*
X54724Y-41771D02*
X53385Y-43110D01*
X50708Y-45551D02*
X50984Y-45275D01*
X50984Y-45275D02*
X50984Y-44803D01*
X55314Y-43267D02*
X55393Y-43188D01*
X55393Y-43188D02*
X55393Y-41732D01*
X54251Y-40000D02*
X55826Y-40000D01*
X54212Y-39960D02*
X54251Y-40000D01*
X42362Y-38425D02*
X42362Y-37362D01*
X42834Y-38897D02*
X42362Y-38425D01*
X43031Y-38897D02*
X42834Y-38897D01*
X43307Y-39173D02*
X43031Y-38897D01*
X44921Y-41732D02*
X45393Y-42204D01*
X44921Y-41417D02*
X44921Y-41732D01*
X44527Y-41023D02*
X44921Y-41417D01*
X55905Y-38937D02*
X55433Y-38464D01*
X55433Y-38464D02*
X54921Y-38464D01*
X53976Y-34488D02*
X52952Y-34488D01*
X55039Y-45236D02*
X56062Y-45236D01*
X45196Y-45866D02*
X44094Y-45866D01*
X46062Y-46732D02*
X45196Y-45866D01*
X46653Y-45866D02*
X47401Y-45866D01*
X47007Y-47795D02*
X47007Y-47755D01*
X46496Y-48307D02*
X47007Y-47795D01*
X47913Y-45629D02*
X47952Y-45669D01*
X47952Y-45669D02*
X49173Y-45669D01*
X49173Y-45669D02*
X49448Y-45944D01*
X48050Y-42900D02*
X47913Y-43228D01*
X50039Y-40748D02*
X48050Y-42900D01*
X50039Y-40708D02*
X50039Y-40748D01*
X49606Y-40275D02*
X50039Y-40708D01*
X48818Y-34763D02*
X46811Y-34763D01*
X50511Y-37125D02*
X49685Y-36889D01*
X50551Y-37086D02*
X50511Y-37125D01*
X48897Y-34291D02*
X46771Y-34291D01*
X49173Y-34566D02*
X48897Y-34291D01*
X49173Y-36102D02*
X49173Y-34566D01*
X49763Y-36535D02*
X49173Y-36102D01*
X50433Y-36811D02*
X49763Y-36535D01*
X50590Y-36653D02*
X50433Y-36811D01*
X48818Y-41377D02*
X49173Y-40472D01*
X47598Y-41496D02*
X47598Y-39330D01*
X47716Y-41614D02*
X47598Y-41496D01*
X44330Y-38700D02*
X44330Y-37480D01*
X44488Y-38858D02*
X44330Y-38700D01*
X47992Y-44763D02*
X47992Y-44645D01*
X48188Y-44960D02*
X47992Y-44763D01*
X49566Y-44960D02*
X48188Y-44960D01*
X49685Y-44842D02*
X49566Y-44960D01*
X51181Y-44291D02*
X50157Y-44291D01*
X48464Y-45393D02*
X48425Y-45354D01*
X49212Y-45393D02*
X48464Y-45393D01*
X50275Y-36338D02*
X50157Y-35708D01*
X50236Y-36377D02*
X50275Y-36338D01*
X54055Y-41377D02*
X54055Y-41574D01*
X53622Y-40944D02*
X54055Y-41377D01*
X53188Y-40984D02*
X53188Y-41929D01*
X52913Y-40708D02*
X53188Y-40984D01*
X52598Y-41102D02*
X52598Y-42677D01*
X52519Y-41023D02*
X52598Y-41102D01*
X52755Y-47952D02*
X52755Y-48031D01*
X53622Y-47086D02*
X52755Y-47952D01*
X50393Y-41299D02*
X51496Y-42401D01*
X50393Y-40354D02*
X50393Y-41299D01*
X50000Y-39960D02*
X50393Y-40354D01*
X49488Y-39960D02*
X50000Y-39960D01*
X49173Y-39685D02*
X49488Y-39960D01*
X48622Y-42637D02*
X48622Y-44606D01*
X49409Y-41850D02*
X48622Y-42637D01*
X45393Y-40157D02*
X45393Y-41614D01*
X45826Y-39724D02*
X45393Y-40157D01*
X47677Y-42913D02*
X44606Y-42913D01*
X49133Y-41456D02*
X47677Y-42913D01*
X49133Y-41181D02*
X49133Y-41456D01*
X49527Y-40787D02*
X49133Y-41181D01*
X49173Y-33818D02*
X49173Y-32992D01*
X53031Y-38937D02*
X53897Y-38937D01*
X51023Y-41535D02*
X51023Y-40905D01*
X49409Y-37480D02*
X51377Y-37480D01*
X49370Y-37440D02*
X49409Y-37480D01*
X45669Y-40433D02*
X45669Y-40944D01*
X46299Y-39803D02*
X45669Y-40433D01*
M02*
